<svg width="200" height="200" viewBox="0 0 200 200" fill="none" xmlns="http://www.w3.org/2000/svg">
<path d="M132.034 2H26V198.956H173V42.9663L132.034 2Z" fill="white"/>
<path d="M132.034 42.9663H173L132.034 2V42.9663Z" fill="#E1E6E9"/>
<path d="M173 42.9664H132.034L173 71.3627V42.9664Z" fill="#EBF0F3"/>
<path d="M76.6463 28.3884C76.9594 27.8857 77.1308 27.3083 77.1308 26.7157V20.2022C77.1308 20.2022 76.724 17.0083 73.5887 16.2534C73.5887 16.2534 74.8662 13.5333 71.5565 12.8904H59.362C54.9044 12.8904 51.29 16.504 51.29 20.9624V25.7475V47.7964H76.6463V28.3884Z" fill="#584C39"/>
<path d="M64.1738 52.0606L64.1914 52.072V52.0568L64.199 52.0675L64.2081 52.0614L64.2112 52.0576V52.0599L70.6653 47.7462H70.666V40.5974C70.1778 40.9333 69.7093 41.2982 69.269 41.6951C66.4369 44.2552 63.6589 43.8165 63.6589 43.8165C61.9649 43.8614 59.5509 42.1254 58.5219 41.3172C58.2598 41.1116 57.9909 40.915 57.7152 40.7284V47.7454L64.1738 52.0606Z" fill="#F6C358"/>
<path d="M64.1906 49.5294V49.5287L62.1027 52.373L64.1906 49.5294Z" fill="#F6C358"/>
<path d="M63.659 45.1731C63.659 45.1731 66.437 45.6118 69.2691 43.0517C69.7093 42.6541 70.1778 42.29 70.6661 41.954C70.7141 41.9205 70.7613 41.8862 70.81 41.8535C72.0638 41.011 74.4732 38.6763 74.9835 32.9786V25.4292C74.9835 25.4292 74.6933 22.7578 71.8475 21.7127L67.6184 20.2281C66.83 19.9516 65.9693 19.9623 65.1877 20.2586C64.3118 20.5915 63.1547 21.0218 62.4265 21.2549C62.0776 21.3669 61.7135 21.4225 61.3471 21.4225H57.329C57.329 21.4225 54.193 21.8293 53.4092 25.3416V31.6845V33.1523C53.4092 33.1523 53.5455 39.3223 57.6307 42.0264C57.6596 42.0454 57.6863 42.066 57.7152 42.085C57.991 42.2709 58.2598 42.4682 58.5219 42.6739C59.551 43.482 61.9649 45.218 63.659 45.1731Z" fill="#FCD462"/>
<path d="M54.2326 46.4512L42.8935 50.5539C41.0738 51.212 39.7514 52.8017 39.4353 54.7106L38.263 61.7885C38.02 63.2579 39.1535 64.594 40.6426 64.594H87.7393C89.2285 64.594 90.362 63.2579 90.119 61.7885L88.9467 54.7106C88.6306 52.8017 87.3082 51.212 85.4885 50.5539L74.1494 46.4512L70.4322 45.1304C66.1665 49.396 60.2759 46.9077 57.8637 45.1304L54.2326 46.4512Z" fill="#424242"/>
<path d="M160.972 80.6489H38.0116V84.229H160.972V80.6489Z" fill="#EBF0F3"/>
<path d="M160.972 96.2993H38.0116V99.8794H160.972V96.2993Z" fill="#EBF0F3"/>
<path d="M160.972 111.966H38.0116V115.546H160.972V111.966Z" fill="#EBF0F3"/>
<path d="M160.972 127.605H38.0116V131.186H160.972V127.605Z" fill="#EBF0F3"/>
<path d="M160.972 143.244H38.0116V146.825H160.972V143.244Z" fill="#EBF0F3"/>
<path d="M160.972 158.883H38.0116V162.463H160.972V158.883Z" fill="#EBF0F3"/>
<path d="M138.391 174.561H38.0116V178.141H138.391V174.561Z" fill="#EBF0F3"/>
<path d="M67.7662 62.4552H67.0045V65.1833H66.2427V66.3524H65.481V67.1319H64.7193V70.2496H65.481V71.0291H63.9576V68.6908H63.1958V67.9113H62.4341V68.6908H61.6724V69.4702H60.9107V70.2496H61.6724V71.0291H60.1489V67.9113H59.3872V67.1319H58.6255V66.3524H57.8638V65.573H57.102V64.7936H56.3403V60.1169H57.102V61.6758H57.8638V62.4552H58.6255V63.2347H60.1489V62.4552H60.9107V61.6758H62.0532V60.8964H63.1958V60.1169H63.9576V55.0506H64.7193V54.2711H70.8131V55.0506H71.5748V58.558H67.7662V59.3375H70.0514V60.1169H67.0045V61.6758H68.5279V63.2347H67.7662V62.4552ZM65.481 55.4403V56.2197H66.2427V55.4403H65.481Z" fill="white"/>
</svg>
