<svg width="160" height="160" viewBox="0 0 160 160" fill="none" xmlns="http://www.w3.org/2000/svg">
<g clip-path="url(#clip0_134_12)">
<path d="M67.104 201.208L80.5 209L93.896 201.208L80.5 82.4274L67.104 201.208Z" fill="#E9ECCD"/>
<path d="M130.735 179.779L80.5 82.4274L112.315 190.494L130.735 179.779Z" fill="#E9ECCD"/>
<path d="M170.923 156.403L80.5 82.4274L151.845 167.5L170.923 156.403Z" fill="#E9ECCD"/>
<path d="M80.5 82.4274L30.2649 179.779L48.6845 190.494L80.5 82.4274Z" fill="#E9ECCD"/>
<path d="M80.5 82.4274L-9.92309 156.403L9.15454 167.5L80.5 82.4274Z" fill="#E9ECCD"/>
<path d="M-30 70.3358V94.5189L80.5 82.4274L-30 70.3358Z" fill="#E9ECCD"/>
<path d="M-30 120.428L-30 144.725L-28.3426 145.689L80.5 82.4274L-30 120.428Z" fill="#E9ECCD"/>
<path d="M191 70.3358L80.5 82.4274L191 94.5189V70.3358Z" fill="#E9ECCD"/>
<path d="M80.5 82.4274L191 44.4254V18.2027L80.5 82.4274Z" fill="#E9ECCD"/>
<path d="M80.5 -48L66.5562 -39.8892L80.5 82.4274L94.4437 -39.8892L80.5 -48Z" fill="#E9ECCD"/>
<path d="M47.8019 -28.9803L28.3594 -17.671L80.5 82.4274L47.8019 -28.9803Z" fill="#E9ECCD"/>
<path d="M7.8189 -5.72305L-13 6.38684L80.5 82.4274L7.8189 -5.72305Z" fill="#E9ECCD"/>
<path d="M-30 18.1493L-30 46.4788L80.5 82.4274L-30 18.1493Z" fill="#E9ECCD"/>
<path d="M80.5 82.4274L132.641 -17.671L113.198 -28.9803L80.5 82.4274Z" fill="#E9ECCD"/>
<path d="M80.5 82.4274L174 6.38687L153.32 -5.64207L80.5 82.4274Z" fill="#E9ECCD"/>
<path d="M191 120.428L80.5 82.4274L189.343 145.689L191 144.725V120.428Z" fill="#E9ECCD"/>
</g>
<defs>
<clipPath id="clip0_134_12">
<rect width="160" height="160" fill="white"/>
</clipPath>
</defs>
</svg>
