<svg width="120" height="120" viewBox="0 0 120 120" fill="none" xmlns="http://www.w3.org/2000/svg">
<g clip-path="url(#clip0_184_2)">
<rect width="120" height="120" rx="60" fill="#00DC82"/>
<g filter="url(#filter0_i_184_2)">
<path d="M120 60C120 93.1371 93.1371 120 60 120C26.8629 120 0 93.1371 0 60C0 26.8629 26.8629 0 60 0C93.1371 0 120 26.8629 120 60Z" fill="#00DC82"/>
</g>
<g opacity="0.3">
<g style="mix-blend-mode:luminosity">
<path d="M97.7027 83.0813L85.3871 78.2587C84.8941 78.0656 84.8347 77.3918 85.2864 77.1156L89.1834 74.7325C89.3872 74.6078 89.6435 74.6069 89.8481 74.7302L94.1068 77.2945C94.5508 77.5618 95.112 77.2186 95.0764 76.7015L94.7341 71.7422C94.7176 71.5039 94.8352 71.2762 95.039 71.1516L98.6855 68.9216C99.133 68.648 99.7017 68.9986 99.6582 69.5213L98.5748 82.5379C98.5392 82.9652 98.102 83.2377 97.7027 83.0813Z" fill="url(#paint0_linear_184_2)"/>
<path fill-rule="evenodd" clip-rule="evenodd" d="M85.5039 77.9604L97.8195 82.783C98.0192 82.8612 98.2378 82.725 98.2556 82.5113L99.339 69.4947C99.3607 69.2334 99.0764 69.0581 98.8526 69.1949L95.2061 71.4249C95.1042 71.4872 95.0454 71.601 95.0537 71.7202L95.3959 76.6795C95.4495 77.4551 94.6076 77.97 93.9415 77.5689L89.6829 75.0046C89.5805 74.943 89.4524 74.9434 89.3505 75.0057L85.4535 77.3889C85.2277 77.527 85.2574 77.8639 85.5039 77.9604ZM85.3871 78.2587L97.7027 83.0813C98.102 83.2377 98.5392 82.9652 98.5748 82.5379L99.6582 69.5213C99.7017 68.9986 99.133 68.648 98.6855 68.9216L95.039 71.1516C94.8352 71.2762 94.7176 71.5039 94.7341 71.7422L95.0764 76.7015C95.112 77.2186 94.5508 77.5618 94.1068 77.2945L89.8481 74.7302C89.6435 74.6069 89.3872 74.6078 89.1834 74.7325L85.2864 77.1156C84.8347 77.3918 84.8941 78.0656 85.3871 78.2587Z" fill="#243D32"/>
<path d="M101.734 87.6145C101.747 88.1075 101.221 88.4291 100.788 88.1934L83.9743 79.0444C83.5411 78.8087 83.5255 78.1924 83.9463 77.9351L86.0489 76.6493C86.2484 76.5273 86.4985 76.5237 86.7014 76.6398L97.5141 82.8286C97.9479 83.0769 98.4862 82.755 98.4728 82.2554L98.1333 69.6359C98.1271 69.4067 98.2439 69.1917 98.4394 69.0721L100.276 67.9489C100.697 67.6916 101.238 67.9863 101.251 68.4793L101.734 87.6145Z" fill="#41B883"/>
<path d="M101.734 87.6145C101.747 88.1075 101.221 88.4291 100.788 88.1934L83.9743 79.0444C83.5411 78.8087 83.5255 78.1924 83.9463 77.9351L86.0489 76.6493C86.2484 76.5273 86.4985 76.5237 86.7014 76.6398L97.5141 82.8286C97.9479 83.0769 98.4862 82.755 98.4728 82.2554L98.1333 69.6359C98.1271 69.4067 98.2439 69.1917 98.4394 69.0721L100.276 67.9489C100.697 67.6916 101.238 67.9863 101.251 68.4793L101.734 87.6145Z" fill="url(#paint1_linear_184_2)"/>
<path fill-rule="evenodd" clip-rule="evenodd" d="M84.1274 78.7631L100.941 87.912C101.157 88.0299 101.42 87.8691 101.414 87.6226L100.931 68.4874C100.924 68.2409 100.654 68.0935 100.443 68.2222L98.6066 69.3454C98.5088 69.4052 98.4504 69.5127 98.4535 69.6273L98.793 82.2467C98.8132 82.9962 98.0056 83.479 97.355 83.1066L86.5423 76.9178C86.4408 76.8598 86.3158 76.8616 86.2161 76.9226L84.1134 78.2084C83.903 78.3371 83.9108 78.6452 84.1274 78.7631ZM100.788 88.1934C101.221 88.4291 101.747 88.1075 101.734 87.6145L101.251 68.4793C101.238 67.9863 100.697 67.6916 100.276 67.9489L98.4394 69.0721C98.2439 69.1917 98.1271 69.4067 98.1333 69.6359L98.4728 82.2554C98.4862 82.755 97.9479 83.0769 97.5141 82.8286L86.7014 76.6398C86.4985 76.5237 86.2484 76.5273 86.0489 76.6493L83.9463 77.9351C83.5255 78.1924 83.5411 78.8087 83.9743 79.0444L100.788 88.1934Z" fill="#243D32"/>
</g>
<g style="mix-blend-mode:luminosity">
<path d="M10.5797 83.0813L-1.73592 78.2587C-2.22893 78.0656 -2.28825 77.3918 -1.83656 77.1156L2.06042 74.7325C2.26423 74.6078 2.52047 74.6069 2.72513 74.7302L6.98377 77.2945C7.42783 77.5618 7.98906 77.2186 7.95337 76.7015L7.61111 71.7422C7.59466 71.5039 7.71219 71.2762 7.91601 71.1516L11.5625 68.9216C12.01 68.648 12.5787 68.9986 12.5352 69.5213L11.4518 82.5379C11.4162 82.9652 10.979 83.2377 10.5797 83.0813Z" fill="url(#paint2_linear_184_2)"/>
<path fill-rule="evenodd" clip-rule="evenodd" d="M-1.61912 77.9604L10.6965 82.783C10.8962 82.8612 11.1148 82.725 11.1326 82.5113L12.216 69.4947C12.2377 69.2334 11.9534 69.0581 11.7296 69.1949L8.08312 71.4249C7.98122 71.4872 7.92245 71.601 7.93068 71.7202L8.27294 76.6795C8.32647 77.4551 7.48463 77.97 6.81853 77.5689L2.55989 75.0046C2.45756 74.943 2.32944 74.9434 2.22754 75.0057L-1.66944 77.3889C-1.89529 77.527 -1.86563 77.8639 -1.61912 77.9604ZM-1.73592 78.2587L10.5797 83.0813C10.979 83.2377 11.4162 82.9652 11.4518 82.5379L12.5352 69.5213C12.5787 68.9986 12.01 68.648 11.5625 68.9216L7.91601 71.1516C7.71219 71.2762 7.59466 71.5039 7.61111 71.7422L7.95337 76.7015C7.98906 77.2186 7.42783 77.5618 6.98377 77.2945L2.72513 74.7302C2.52047 74.6069 2.26423 74.6078 2.06042 74.7325L-1.83656 77.1156C-2.28825 77.3918 -2.22893 78.0656 -1.73592 78.2587Z" fill="#243D32"/>
<path d="M14.6112 87.6145C14.6237 88.1075 14.0978 88.4291 13.6646 88.1934L-3.1487 79.0444C-3.58189 78.8087 -3.59746 78.1924 -3.17672 77.9351L-1.07404 76.6493C-0.874572 76.5273 -0.624488 76.5237 -0.421563 76.6398L10.3911 82.8286C10.8249 83.0769 11.3632 82.755 11.3498 82.2554L11.0103 69.6359C11.0041 69.4067 11.1209 69.1917 11.3165 69.0721L13.1531 67.9489C13.5739 67.6916 14.1154 67.9863 14.1278 68.4793L14.6112 87.6145Z" fill="#41B883"/>
<path d="M14.6112 87.6145C14.6237 88.1075 14.0978 88.4291 13.6646 88.1934L-3.1487 79.0444C-3.58189 78.8087 -3.59746 78.1924 -3.17672 77.9351L-1.07404 76.6493C-0.874572 76.5273 -0.624488 76.5237 -0.421563 76.6398L10.3911 82.8286C10.8249 83.0769 11.3632 82.755 11.3498 82.2554L11.0103 69.6359C11.0041 69.4067 11.1209 69.1917 11.3165 69.0721L13.1531 67.9489C13.5739 67.6916 14.1154 67.9863 14.1278 68.4793L14.6112 87.6145Z" fill="url(#paint3_linear_184_2)"/>
<path fill-rule="evenodd" clip-rule="evenodd" d="M-2.99559 78.7631L13.8177 87.912C14.0343 88.0299 14.2972 87.8691 14.291 87.6226L13.8076 68.4874C13.8014 68.2409 13.5306 68.0935 13.3203 68.2222L11.4836 69.3454C11.3858 69.4052 11.3274 69.5127 11.3305 69.6273L11.67 82.2467C11.6902 82.9962 10.8827 83.479 10.232 83.1066L-0.580685 76.9178C-0.682147 76.8598 -0.807189 76.8616 -0.906925 76.9226L-3.0096 78.2084C-3.21997 78.3371 -3.21219 78.6452 -2.99559 78.7631ZM13.6646 88.1934C14.0978 88.4291 14.6237 88.1075 14.6112 87.6145L14.1278 68.4793C14.1154 67.9863 13.5739 67.6916 13.1531 67.9489L11.3165 69.0721C11.1209 69.1917 11.0041 69.4067 11.0103 69.6359L11.3498 82.2554C11.3632 82.755 10.8249 83.0769 10.3911 82.8286L-0.421563 76.6398C-0.624488 76.5237 -0.874572 76.5273 -1.07404 76.6493L-3.17672 77.9351C-3.59746 78.1924 -3.58189 78.8087 -3.1487 79.0444L13.6646 88.1934Z" fill="#243D32"/>
</g>
<g style="mix-blend-mode:luminosity">
<path d="M43.3114 46.2055L30.9957 41.3828C30.5027 41.1898 30.4434 40.516 30.8951 40.2397L34.792 37.8566C34.9958 37.732 35.2521 37.7311 35.4567 37.8543L39.7154 40.4186C40.1594 40.686 40.7207 40.3428 40.685 39.8257L40.3427 34.8664C40.3263 34.6281 40.4438 34.4004 40.6476 34.2757L44.2941 32.0458C44.7416 31.7721 45.3103 32.1228 45.2668 32.6455L44.1834 45.6621C44.1478 46.0894 43.7106 46.3618 43.3114 46.2055Z" fill="url(#paint4_linear_184_2)"/>
<path fill-rule="evenodd" clip-rule="evenodd" d="M31.1125 41.0846L43.4282 45.9072C43.6278 45.9854 43.8464 45.8491 43.8642 45.6355L44.9476 32.6189C44.9694 32.3575 44.685 32.1822 44.4613 32.319L40.8147 34.549C40.7128 34.6113 40.6541 34.7252 40.6623 34.8443L41.0046 39.8036C41.0581 40.5793 40.2162 41.0941 39.5501 40.693L35.2915 38.1287C35.1892 38.0671 35.0611 38.0676 34.9592 38.1299L31.0622 40.513C30.8363 40.6511 30.866 40.988 31.1125 41.0846ZM30.9957 41.3828L43.3114 46.2055C43.7106 46.3618 44.1478 46.0894 44.1834 45.6621L45.2668 32.6455C45.3103 32.1228 44.7416 31.7721 44.2941 32.0458L40.6476 34.2757C40.4438 34.4004 40.3263 34.6281 40.3427 34.8664L40.685 39.8257C40.7207 40.3428 40.1594 40.686 39.7154 40.4186L35.4567 37.8543C35.2521 37.7311 34.9958 37.732 34.792 37.8566L30.8951 40.2397C30.4434 40.516 30.5027 41.1898 30.9957 41.3828Z" fill="#243D32"/>
<path d="M47.3428 50.7386C47.3553 51.2316 46.8294 51.5533 46.3962 51.3175L29.5829 42.1686C29.1497 41.9328 29.1342 41.3166 29.5549 41.0593L31.6576 39.7734C31.857 39.6514 32.1071 39.6478 32.31 39.764L43.1228 45.9528C43.5565 46.201 44.0949 45.8791 44.0814 45.3795L43.7419 32.76C43.7357 32.5309 43.8525 32.3158 44.0481 32.1962L45.8848 31.073C46.3055 30.8158 46.847 31.1104 46.8594 31.6034L47.3428 50.7386Z" fill="#41B883"/>
<path d="M47.3428 50.7386C47.3553 51.2316 46.8294 51.5533 46.3962 51.3175L29.5829 42.1686C29.1497 41.9328 29.1342 41.3166 29.5549 41.0593L31.6576 39.7734C31.857 39.6514 32.1071 39.6478 32.31 39.764L43.1228 45.9528C43.5565 46.201 44.0949 45.8791 44.0814 45.3795L43.7419 32.76C43.7357 32.5309 43.8525 32.3158 44.0481 32.1962L45.8848 31.073C46.3055 30.8158 46.847 31.1104 46.8594 31.6034L47.3428 50.7386Z" fill="url(#paint5_linear_184_2)"/>
<path fill-rule="evenodd" clip-rule="evenodd" d="M29.736 41.8872L46.5493 51.0362C46.7659 51.154 47.0288 50.9932 47.0226 50.7467L46.5392 31.6115C46.533 31.365 46.2622 31.2177 46.0519 31.3463L44.2152 32.4695C44.1174 32.5293 44.059 32.6368 44.0621 32.7514L44.4016 45.3709C44.4218 46.1203 43.6143 46.6032 42.9636 46.2308L32.1509 40.042C32.0495 39.9839 31.9244 39.9857 31.8247 40.0467L29.722 41.3326C29.5116 41.4612 29.5194 41.7693 29.736 41.8872ZM46.3962 51.3175C46.8294 51.5533 47.3553 51.2316 47.3428 50.7386L46.8594 31.6034C46.847 31.1104 46.3055 30.8158 45.8848 31.073L44.0481 32.1962C43.8525 32.3158 43.7357 32.5309 43.7419 32.76L44.0814 45.3795C44.0949 45.8791 43.5565 46.201 43.1228 45.9528L32.31 39.764C32.1071 39.6478 31.857 39.6514 31.6576 39.7734L29.5549 41.0593C29.1342 41.3166 29.1497 41.9328 29.5829 42.1686L46.3962 51.3175Z" fill="#243D32"/>
</g>
<g style="mix-blend-mode:luminosity">
<path d="M109.674 63.4686L108.336 50.3102C108.282 49.7835 108.854 49.4228 109.307 49.6983L113.207 52.0756C113.411 52.1999 113.529 52.4274 113.513 52.6658L113.178 57.6256C113.143 58.1427 113.705 58.4851 114.149 58.217L118.403 55.6463C118.608 55.5228 118.864 55.5233 119.068 55.6476L122.718 57.8721C123.166 58.1451 123.114 58.8111 122.629 59.0113L110.556 63.9959C110.16 64.1595 109.718 63.8952 109.674 63.4686Z" fill="url(#paint6_linear_184_2)"/>
<path fill-rule="evenodd" clip-rule="evenodd" d="M108.654 50.2778L109.993 63.4361C110.015 63.6494 110.236 63.7816 110.434 63.6998L122.507 58.7152C122.749 58.6151 122.775 58.2821 122.551 58.1456L118.901 55.9211C118.799 55.859 118.671 55.8587 118.569 55.9205L114.314 58.4912C113.649 58.8933 112.806 58.3797 112.859 57.604L113.193 52.6442C113.201 52.525 113.142 52.4113 113.04 52.3491L109.14 49.9718C108.914 49.8341 108.628 50.0144 108.654 50.2778ZM108.336 50.3102L109.674 63.4686C109.718 63.8952 110.16 64.1595 110.556 63.9959L122.629 59.0113C123.114 58.8111 123.166 58.1451 122.718 57.8721L119.068 55.6476C118.864 55.5233 118.608 55.5228 118.403 55.6463L114.149 58.217C113.705 58.4851 113.143 58.1427 113.178 57.6256L113.513 52.6658C113.529 52.4274 113.411 52.1999 113.207 52.0756L109.307 49.6983C108.854 49.4228 108.282 49.7835 108.336 50.3102Z" fill="#243D32"/>
<path d="M107.484 69.126C107.051 69.3624 106.525 69.0416 106.537 68.5485L106.991 49.4126C107.003 48.9196 107.544 48.6241 107.965 48.8808L110.07 50.1635C110.269 50.2852 110.387 50.5059 110.376 50.7395L109.813 63.1853C109.79 63.6846 110.322 64.0163 110.761 63.7761L121.83 57.7073C122.031 57.5971 122.276 57.6027 122.472 57.722L124.31 58.8424C124.731 59.0991 124.717 59.7154 124.284 59.9517L107.484 69.126Z" fill="#41B883"/>
<path d="M107.484 69.126C107.051 69.3624 106.525 69.0416 106.537 68.5485L106.991 49.4126C107.003 48.9196 107.544 48.6241 107.965 48.8808L110.07 50.1635C110.269 50.2852 110.387 50.5059 110.376 50.7395L109.813 63.1853C109.79 63.6846 110.322 64.0163 110.761 63.7761L121.83 57.7073C122.031 57.5971 122.276 57.6027 122.472 57.722L124.31 58.8424C124.731 59.0991 124.717 59.7154 124.284 59.9517L107.484 69.126Z" fill="url(#paint7_linear_184_2)"/>
<path fill-rule="evenodd" clip-rule="evenodd" d="M107.312 49.4202L106.857 68.5561C106.851 68.8027 107.114 68.9631 107.331 68.8449L124.13 59.6706C124.347 59.5524 124.354 59.2443 124.143 59.1159L122.305 57.9955C122.207 57.9358 122.085 57.933 121.984 57.9881L110.915 64.0569C110.257 64.4173 109.459 63.9197 109.493 63.1708L110.056 50.725C110.062 50.6082 110.003 50.4978 109.903 50.437L107.798 49.1543C107.588 49.026 107.317 49.1737 107.312 49.4202ZM106.537 68.5485C106.525 69.0416 107.051 69.3624 107.484 69.126L124.284 59.9517C124.717 59.7154 124.731 59.0991 124.31 58.8424L122.472 57.722C122.276 57.6027 122.031 57.5971 121.83 57.7073L110.761 63.7761C110.322 64.0163 109.79 63.6846 109.813 63.1853L110.376 50.7395C110.387 50.5059 110.269 50.2852 110.07 50.1635L107.965 48.8808C107.544 48.6241 107.003 48.9196 106.991 49.4126L106.537 68.5485Z" fill="#243D32"/>
</g>
<g style="mix-blend-mode:luminosity">
<path d="M109.674 90.8677L108.336 77.7093C108.282 77.1826 108.854 76.8219 109.307 77.0974L113.207 79.4747C113.411 79.599 113.529 79.8265 113.513 80.0649L113.178 85.0247C113.143 85.5418 113.705 85.8842 114.149 85.6161L118.403 83.0454C118.608 82.9219 118.864 82.9224 119.068 83.0467L122.718 85.2712C123.166 85.5442 123.114 86.2103 122.629 86.4104L110.556 91.395C110.16 91.5586 109.718 91.2943 109.674 90.8677Z" fill="url(#paint8_linear_184_2)"/>
<path fill-rule="evenodd" clip-rule="evenodd" d="M108.654 77.6769L109.993 90.8352C110.015 91.0486 110.236 91.1807 110.434 91.0989L122.507 86.1143C122.749 86.0143 122.775 85.6812 122.551 85.5447L118.901 83.3203C118.799 83.2581 118.671 83.2578 118.569 83.3196L114.314 85.8903C113.649 86.2924 112.806 85.7789 112.859 85.0031L113.193 80.0433C113.201 79.9241 113.142 79.8104 113.04 79.7482L109.14 77.371C108.914 77.2332 108.628 77.4135 108.654 77.6769ZM108.336 77.7093L109.674 90.8677C109.718 91.2943 110.16 91.5586 110.556 91.395L122.629 86.4104C123.114 86.2103 123.166 85.5442 122.718 85.2712L119.068 83.0467C118.864 82.9224 118.608 82.9219 118.403 83.0454L114.149 85.6161C113.705 85.8842 113.143 85.5418 113.178 85.0247L113.513 80.0649C113.529 79.8265 113.411 79.599 113.207 79.4747L109.307 77.0974C108.854 76.8219 108.282 77.1826 108.336 77.7093Z" fill="#243D32"/>
<path d="M107.484 96.5251C107.051 96.7615 106.525 96.4407 106.537 95.9476L106.991 76.8117C107.003 76.3187 107.544 76.0232 107.965 76.2799L110.07 77.5626C110.269 77.6843 110.387 77.905 110.376 78.1386L109.813 90.5844C109.79 91.0837 110.322 91.4154 110.761 91.1752L121.83 85.1064C122.031 84.9962 122.276 85.0018 122.472 85.1211L124.31 86.2415C124.731 86.4982 124.717 87.1145 124.284 87.3508L107.484 96.5251Z" fill="#41B883"/>
<path d="M107.484 96.5251C107.051 96.7615 106.525 96.4407 106.537 95.9476L106.991 76.8117C107.003 76.3187 107.544 76.0232 107.965 76.2799L110.07 77.5626C110.269 77.6843 110.387 77.905 110.376 78.1386L109.813 90.5844C109.79 91.0837 110.322 91.4154 110.761 91.1752L121.83 85.1064C122.031 84.9962 122.276 85.0018 122.472 85.1211L124.31 86.2415C124.731 86.4982 124.717 87.1145 124.284 87.3508L107.484 96.5251Z" fill="url(#paint9_linear_184_2)"/>
<path fill-rule="evenodd" clip-rule="evenodd" d="M107.312 76.8193L106.857 95.9552C106.851 96.2018 107.114 96.3622 107.331 96.244L124.13 87.0697C124.347 86.9515 124.354 86.6434 124.143 86.515L122.305 85.3946C122.207 85.335 122.085 85.3322 121.984 85.3873L110.915 91.4561C110.257 91.8164 109.459 91.3188 109.493 90.5699L110.056 78.1241C110.062 78.0073 110.003 77.8969 109.903 77.8361L107.798 76.5534C107.588 76.4251 107.317 76.5728 107.312 76.8193ZM106.537 95.9476C106.525 96.4407 107.051 96.7615 107.484 96.5251L124.284 87.3508C124.717 87.1145 124.731 86.4982 124.31 86.2415L122.472 85.1211C122.276 85.0018 122.031 84.9962 121.83 85.1064L110.761 91.1752C110.322 91.4154 109.79 91.0837 109.813 90.5844L110.376 78.1386C110.387 77.905 110.269 77.6843 110.07 77.5626L107.965 76.2799C107.544 76.0232 107.003 76.3187 106.991 76.8117L106.537 95.9476Z" fill="#243D32"/>
</g>
<g style="mix-blend-mode:luminosity">
<path d="M22.5511 63.4686L21.2128 50.3102C21.1592 49.7835 21.7315 49.4228 22.1836 49.6983L26.0842 52.0756C26.2882 52.1999 26.406 52.4274 26.3899 52.6658L26.0552 57.6256C26.0202 58.1427 26.582 58.4851 27.0257 58.217L31.2804 55.6463C31.4849 55.5228 31.7411 55.5233 31.9451 55.6476L35.595 57.8721C36.0429 58.1451 35.9909 58.8111 35.5061 59.0113L23.433 63.9959C23.0366 64.1595 22.5945 63.8952 22.5511 63.4686Z" fill="url(#paint10_linear_184_2)"/>
<path fill-rule="evenodd" clip-rule="evenodd" d="M21.5315 50.2778L22.8698 63.4361C22.8915 63.6494 23.1126 63.7816 23.3108 63.6998L35.3838 58.7152C35.6263 58.6151 35.6522 58.2821 35.4283 58.1456L31.7784 55.9211C31.6764 55.859 31.5483 55.8587 31.4461 55.9205L27.1913 58.4912C26.5258 58.8933 25.6832 58.3797 25.7356 57.604L26.0703 52.6442C26.0784 52.525 26.0195 52.4113 25.9175 52.3491L22.0169 49.9718C21.7908 49.8341 21.5047 50.0144 21.5315 50.2778ZM21.2128 50.3102L22.5511 63.4686C22.5945 63.8952 23.0366 64.1595 23.433 63.9959L35.5061 59.0113C35.9909 58.8111 36.0429 58.1451 35.595 57.8721L31.9451 55.6476C31.7411 55.5233 31.4849 55.5228 31.2804 55.6463L27.0257 58.217C26.582 58.4851 26.0202 58.1427 26.0552 57.6256L26.3899 52.6658C26.406 52.4274 26.2882 52.1999 26.0842 52.0756L22.1836 49.6983C21.7315 49.4228 21.1592 49.7835 21.2128 50.3102Z" fill="#243D32"/>
<path d="M20.3613 69.126C19.9284 69.3624 19.402 69.0416 19.4137 68.5485L19.8683 49.4126C19.88 48.9196 20.4211 48.6241 20.8422 48.8808L22.9468 50.1635C23.1465 50.2852 23.264 50.5059 23.2534 50.7395L22.6897 63.1853C22.6671 63.6846 23.1995 64.0163 23.6377 63.7761L34.7073 57.7073C34.9083 57.5971 35.1529 57.6027 35.3487 57.722L37.1871 58.8424C37.6082 59.0991 37.5936 59.7154 37.1607 59.9517L20.3613 69.126Z" fill="#41B883"/>
<path d="M20.3613 69.126C19.9284 69.3624 19.402 69.0416 19.4137 68.5485L19.8683 49.4126C19.88 48.9196 20.4211 48.6241 20.8422 48.8808L22.9468 50.1635C23.1465 50.2852 23.264 50.5059 23.2534 50.7395L22.6897 63.1853C22.6671 63.6846 23.1995 64.0163 23.6377 63.7761L34.7073 57.7073C34.9083 57.5971 35.1529 57.6027 35.3487 57.722L37.1871 58.8424C37.6082 59.0991 37.5936 59.7154 37.1607 59.9517L20.3613 69.126Z" fill="url(#paint11_linear_184_2)"/>
<path fill-rule="evenodd" clip-rule="evenodd" d="M20.1886 49.4202L19.734 68.5561C19.7281 68.8027 19.9913 68.9631 20.2077 68.8449L37.0072 59.6706C37.2236 59.5524 37.231 59.2443 37.0204 59.1159L35.182 57.9955C35.0841 57.9358 34.9618 57.933 34.8613 57.9881L23.7917 64.0569C23.1343 64.4173 22.3358 63.9197 22.3697 63.1708L22.9334 50.725C22.9387 50.6082 22.8799 50.4978 22.7801 50.437L20.6755 49.1543C20.4649 49.026 20.1944 49.1737 20.1886 49.4202ZM19.4137 68.5485C19.402 69.0416 19.9284 69.3624 20.3613 69.126L37.1607 59.9517C37.5936 59.7154 37.6082 59.0991 37.1871 58.8424L35.3487 57.722C35.1529 57.6027 34.9083 57.5971 34.7073 57.7073L23.6377 63.7761C23.1995 64.0163 22.6671 63.6846 22.6897 63.1853L23.2534 50.7395C23.264 50.5059 23.1465 50.2852 22.9468 50.1635L20.8422 48.8808C20.4211 48.6241 19.88 48.9196 19.8683 49.4126L19.4137 68.5485Z" fill="#243D32"/>
</g>
<g style="mix-blend-mode:luminosity">
<path d="M22.5511 93.1775L21.2128 80.0192C21.1592 79.4924 21.7315 79.1318 22.1836 79.4073L26.0842 81.7846C26.2882 81.9089 26.406 82.1364 26.3899 82.3748L26.0552 87.3345C26.0202 87.8517 26.582 88.1941 27.0257 87.926L31.2804 85.3553C31.4849 85.2318 31.7411 85.2323 31.9451 85.3566L35.595 87.5811C36.0429 87.854 35.9909 88.5201 35.5061 88.7203L23.433 93.7049C23.0366 93.8685 22.5945 93.6041 22.5511 93.1775Z" fill="url(#paint12_linear_184_2)"/>
<path fill-rule="evenodd" clip-rule="evenodd" d="M21.5315 79.9868L22.8698 93.1451C22.8915 93.3584 23.1126 93.4906 23.3108 93.4088L35.3838 88.4242C35.6263 88.3241 35.6522 87.9911 35.4283 87.8546L31.7784 85.6301C31.6764 85.568 31.5483 85.5677 31.4461 85.6295L27.1913 88.2002C26.5258 88.6023 25.6832 88.0887 25.7356 87.313L26.0703 82.3532C26.0784 82.234 26.0195 82.1202 25.9175 82.0581L22.0169 79.6808C21.7908 79.5431 21.5047 79.7234 21.5315 79.9868ZM21.2128 80.0192L22.5511 93.1775C22.5945 93.6041 23.0366 93.8685 23.433 93.7049L35.5061 88.7203C35.9909 88.5201 36.0429 87.854 35.595 87.5811L31.9451 85.3566C31.7411 85.2323 31.4849 85.2318 31.2804 85.3553L27.0257 87.926C26.582 88.1941 26.0202 87.8517 26.0552 87.3345L26.3899 82.3748C26.406 82.1364 26.2882 81.9089 26.0842 81.7846L22.1836 79.4073C21.7315 79.1318 21.1592 79.4924 21.2128 80.0192Z" fill="#243D32"/>
<path d="M20.3613 98.835C19.9284 99.0714 19.402 98.7506 19.4137 98.2575L19.8683 79.1216C19.88 78.6286 20.4211 78.3331 20.8422 78.5898L22.9468 79.8725C23.1465 79.9941 23.264 80.2149 23.2534 80.4485L22.6897 92.8943C22.6671 93.3936 23.1995 93.7253 23.6377 93.485L34.7073 87.4163C34.9083 87.306 35.1529 87.3116 35.3487 87.431L37.1871 88.5514C37.6082 88.808 37.5936 89.4243 37.1607 89.6607L20.3613 98.835Z" fill="#41B883"/>
<path d="M20.3613 98.835C19.9284 99.0714 19.402 98.7506 19.4137 98.2575L19.8683 79.1216C19.88 78.6286 20.4211 78.3331 20.8422 78.5898L22.9468 79.8725C23.1465 79.9941 23.264 80.2149 23.2534 80.4485L22.6897 92.8943C22.6671 93.3936 23.1995 93.7253 23.6377 93.485L34.7073 87.4163C34.9083 87.306 35.1529 87.3116 35.3487 87.431L37.1871 88.5514C37.6082 88.808 37.5936 89.4243 37.1607 89.6607L20.3613 98.835Z" fill="url(#paint13_linear_184_2)"/>
<path fill-rule="evenodd" clip-rule="evenodd" d="M20.1886 79.1292L19.734 98.2651C19.7281 98.5116 19.9913 98.6721 20.2077 98.5539L37.0072 89.3796C37.2236 89.2614 37.231 88.9532 37.0204 88.8249L35.182 87.7045C35.0841 87.6448 34.9618 87.642 34.8613 87.6971L23.7917 93.7659C23.1343 94.1263 22.3358 93.6287 22.3697 92.8798L22.9334 80.434C22.9387 80.3172 22.8799 80.2068 22.7801 80.146L20.6755 78.8633C20.4649 78.735 20.1944 78.8827 20.1886 79.1292ZM19.4137 98.2575C19.402 98.7506 19.9284 99.0714 20.3613 98.835L37.1607 89.6607C37.5936 89.4243 37.6082 88.808 37.1871 88.5514L35.3487 87.431C35.1529 87.3116 34.9083 87.306 34.7073 87.4163L23.6377 93.485C23.1995 93.7253 22.6671 93.3936 22.6897 92.8943L23.2534 80.4485C23.264 80.2149 23.1465 79.9941 22.9468 79.8725L20.8422 78.5898C20.4211 78.3331 19.88 78.6286 19.8683 79.1216L19.4137 98.2575Z" fill="#243D32"/>
</g>
<g style="mix-blend-mode:luminosity">
<path d="M55.2828 26.5927L53.9444 13.4343C53.8909 12.9076 54.4631 12.5469 54.9152 12.8225L58.8158 15.1997C59.0198 15.324 59.1376 15.5516 59.1216 15.7899L58.7868 20.7497C58.7519 21.2669 59.3136 21.6092 59.7573 21.3412L64.012 18.7705C64.2165 18.6469 64.4727 18.6474 64.6767 18.7718L68.3266 20.9962C68.7745 21.2692 68.7225 21.9353 68.2377 22.1355L56.1646 27.12C55.7683 27.2837 55.3261 27.0193 55.2828 26.5927Z" fill="url(#paint14_linear_184_2)"/>
<path fill-rule="evenodd" clip-rule="evenodd" d="M54.2631 13.4019L55.6014 26.5603C55.6231 26.7736 55.8442 26.9058 56.0424 26.824L68.1155 21.8394C68.3579 21.7393 68.3839 21.4062 68.1599 21.2698L64.51 19.0453C64.408 18.9831 64.2799 18.9829 64.1777 19.0447L59.9229 21.6154C59.2574 22.0174 58.4148 21.5039 58.4672 20.7281L58.802 15.7683C58.81 15.6492 58.7511 15.5354 58.6491 15.4732L54.7485 13.096C54.5224 12.9582 54.2363 13.1386 54.2631 13.4019ZM53.9444 13.4343L55.2828 26.5927C55.3261 27.0193 55.7683 27.2837 56.1646 27.12L68.2377 22.1355C68.7225 21.9353 68.7745 21.2692 68.3266 20.9962L64.6767 18.7718C64.4727 18.6474 64.2165 18.6469 64.012 18.7705L59.7573 21.3412C59.3136 21.6092 58.7519 21.2669 58.7868 20.7497L59.1216 15.7899C59.1376 15.5516 59.0198 15.324 58.8158 15.1997L54.9152 12.8225C54.4631 12.5469 53.8909 12.9076 53.9444 13.4343Z" fill="#243D32"/>
<path d="M53.0929 32.2502C52.6601 32.4865 52.1336 32.1657 52.1454 31.6727L52.5999 12.5368C52.6116 12.0437 53.1527 11.7483 53.5738 12.0049L55.6784 13.2876C55.8781 13.4093 55.9956 13.6301 55.985 13.8637L55.4213 26.3095C55.3987 26.8087 55.9311 27.1405 56.3693 26.9002L67.4389 20.8314C67.64 20.7212 67.8846 20.7268 68.0803 20.8461L69.9187 21.9665C70.3398 22.2232 70.3252 22.8395 69.8924 23.0759L53.0929 32.2502Z" fill="#41B883"/>
<path d="M53.0929 32.2502C52.6601 32.4865 52.1336 32.1657 52.1454 31.6727L52.5999 12.5368C52.6116 12.0437 53.1527 11.7483 53.5738 12.0049L55.6784 13.2876C55.8781 13.4093 55.9956 13.6301 55.985 13.8637L55.4213 26.3095C55.3987 26.8087 55.9311 27.1405 56.3693 26.9002L67.4389 20.8314C67.64 20.7212 67.8846 20.7268 68.0803 20.8461L69.9187 21.9665C70.3398 22.2232 70.3252 22.8395 69.8924 23.0759L53.0929 32.2502Z" fill="url(#paint15_linear_184_2)"/>
<path fill-rule="evenodd" clip-rule="evenodd" d="M52.9202 12.5444L52.4656 31.6803C52.4597 31.9268 52.7229 32.0872 52.9394 31.969L69.7388 22.7947C69.9552 22.6766 69.9626 22.3684 69.752 22.2401L67.9136 21.1197C67.8157 21.06 67.6934 21.0572 67.5929 21.1123L56.5233 27.1811C55.8659 27.5415 55.0674 27.0439 55.1013 26.295L55.665 13.8492C55.6703 13.7324 55.6115 13.622 55.5117 13.5611L53.4071 12.2785C53.1965 12.1501 52.926 12.2979 52.9202 12.5444ZM52.1454 31.6727C52.1336 32.1657 52.6601 32.4865 53.0929 32.2502L69.8924 23.0759C70.3252 22.8395 70.3398 22.2232 69.9187 21.9665L68.0803 20.8461C67.8846 20.7268 67.64 20.7212 67.4389 20.8314L56.3693 26.9002C55.9311 27.1405 55.3987 26.8087 55.4213 26.3095L55.985 13.8637C55.9956 13.6301 55.8781 13.4093 55.6784 13.2876L53.5738 12.0049C53.1527 11.7483 52.6116 12.0437 52.5999 12.5368L52.1454 31.6727Z" fill="#243D32"/>
</g>
<g style="mix-blend-mode:luminosity">
<path d="M109.674 37.2361L108.336 24.0777C108.282 23.551 108.854 23.1903 109.307 23.4658L113.207 25.8431C113.411 25.9674 113.529 26.1949 113.513 26.4333L113.178 31.3931C113.143 31.9102 113.705 32.2526 114.149 31.9846L118.403 29.4139C118.608 29.2903 118.864 29.2908 119.068 29.4151L122.718 31.6396C123.166 31.9126 123.114 32.5787 122.629 32.7788L110.556 37.7634C110.16 37.9271 109.718 37.6627 109.674 37.2361Z" fill="url(#paint16_linear_184_2)"/>
<path fill-rule="evenodd" clip-rule="evenodd" d="M108.654 24.0453L109.993 37.2037C110.015 37.417 110.236 37.5491 110.434 37.4673L122.507 32.4827C122.749 32.3827 122.775 32.0496 122.551 31.9131L118.901 29.6887C118.799 29.6265 118.671 29.6263 118.569 29.688L114.314 32.2587C113.649 32.6608 112.806 32.1473 112.859 31.3715L113.193 26.4117C113.201 26.2925 113.142 26.1788 113.04 26.1166L109.14 23.7394C108.914 23.6016 108.628 23.7819 108.654 24.0453ZM108.336 24.0777L109.674 37.2361C109.718 37.6627 110.16 37.9271 110.556 37.7634L122.629 32.7788C123.114 32.5787 123.166 31.9126 122.718 31.6396L119.068 29.4151C118.864 29.2908 118.608 29.2903 118.403 29.4139L114.149 31.9846C113.705 32.2526 113.143 31.9102 113.178 31.3931L113.513 26.4333C113.529 26.1949 113.411 25.9674 113.207 25.8431L109.307 23.4658C108.854 23.1903 108.282 23.551 108.336 24.0777Z" fill="#243D32"/>
<path d="M107.484 42.8935C107.051 43.1299 106.525 42.8091 106.537 42.316L106.991 23.1801C107.003 22.6871 107.544 22.3916 107.965 22.6483L110.07 23.931C110.269 24.0527 110.387 24.2735 110.376 24.507L109.813 36.9528C109.79 37.4521 110.322 37.7838 110.761 37.5436L121.83 31.4748C122.031 31.3646 122.276 31.3702 122.472 31.4895L124.31 32.6099C124.731 32.8666 124.717 33.4829 124.284 33.7192L107.484 42.8935Z" fill="#41B883"/>
<path d="M107.484 42.8935C107.051 43.1299 106.525 42.8091 106.537 42.316L106.991 23.1801C107.003 22.6871 107.544 22.3916 107.965 22.6483L110.07 23.931C110.269 24.0527 110.387 24.2735 110.376 24.507L109.813 36.9528C109.79 37.4521 110.322 37.7838 110.761 37.5436L121.83 31.4748C122.031 31.3646 122.276 31.3702 122.472 31.4895L124.31 32.6099C124.731 32.8666 124.717 33.4829 124.284 33.7192L107.484 42.8935Z" fill="url(#paint17_linear_184_2)"/>
<path fill-rule="evenodd" clip-rule="evenodd" d="M107.312 23.1878L106.857 42.3237C106.851 42.5702 107.114 42.7306 107.331 42.6124L124.13 33.4381C124.347 33.3199 124.354 33.0118 124.143 32.8834L122.305 31.763C122.207 31.7034 122.085 31.7006 121.984 31.7557L110.915 37.8245C110.257 38.1849 109.459 37.6873 109.493 36.9383L110.056 24.4925C110.062 24.3757 110.003 24.2654 109.903 24.2045L107.798 22.9218C107.588 22.7935 107.317 22.9412 107.312 23.1878ZM106.537 42.316C106.525 42.8091 107.051 43.1299 107.484 42.8935L124.284 33.7192C124.717 33.4829 124.731 32.8666 124.31 32.6099L122.472 31.4895C122.276 31.3702 122.031 31.3646 121.83 31.4748L110.761 37.5436C110.322 37.7838 109.79 37.4521 109.813 36.9528L110.376 24.507C110.387 24.2735 110.269 24.0527 110.07 23.931L107.965 22.6483C107.544 22.3916 107.003 22.6871 106.991 23.1801L106.537 42.316Z" fill="#243D32"/>
</g>
<g style="mix-blend-mode:luminosity">
<path d="M22.5511 37.2361L21.2128 24.0777C21.1592 23.551 21.7315 23.1903 22.1836 23.4658L26.0842 25.8431C26.2882 25.9674 26.406 26.1949 26.3899 26.4333L26.0552 31.3931C26.0202 31.9102 26.582 32.2526 27.0257 31.9846L31.2804 29.4139C31.4849 29.2903 31.7411 29.2908 31.9451 29.4151L35.595 31.6396C36.0429 31.9126 35.9909 32.5787 35.5061 32.7788L23.433 37.7634C23.0366 37.9271 22.5945 37.6627 22.5511 37.2361Z" fill="url(#paint18_linear_184_2)"/>
<path fill-rule="evenodd" clip-rule="evenodd" d="M21.5315 24.0453L22.8698 37.2037C22.8915 37.417 23.1126 37.5491 23.3108 37.4673L35.3838 32.4827C35.6263 32.3827 35.6522 32.0496 35.4283 31.9131L31.7784 29.6887C31.6764 29.6265 31.5483 29.6263 31.4461 29.688L27.1913 32.2587C26.5258 32.6608 25.6832 32.1473 25.7356 31.3715L26.0703 26.4117C26.0784 26.2925 26.0195 26.1788 25.9175 26.1166L22.0169 23.7394C21.7908 23.6016 21.5047 23.7819 21.5315 24.0453ZM21.2128 24.0777L22.5511 37.2361C22.5945 37.6627 23.0366 37.9271 23.433 37.7634L35.5061 32.7788C35.9909 32.5787 36.0429 31.9126 35.595 31.6396L31.9451 29.4151C31.7411 29.2908 31.4849 29.2903 31.2804 29.4139L27.0257 31.9846C26.582 32.2526 26.0202 31.9102 26.0552 31.3931L26.3899 26.4333C26.406 26.1949 26.2882 25.9674 26.0842 25.8431L22.1836 23.4658C21.7315 23.1903 21.1592 23.551 21.2128 24.0777Z" fill="#243D32"/>
<path d="M20.3613 42.8935C19.9284 43.1299 19.402 42.8091 19.4137 42.316L19.8683 23.1801C19.88 22.6871 20.4211 22.3916 20.8422 22.6483L22.9468 23.931C23.1465 24.0527 23.264 24.2735 23.2534 24.507L22.6897 36.9528C22.6671 37.4521 23.1995 37.7838 23.6377 37.5436L34.7073 31.4748C34.9083 31.3646 35.1529 31.3702 35.3487 31.4895L37.1871 32.6099C37.6082 32.8666 37.5936 33.4829 37.1607 33.7192L20.3613 42.8935Z" fill="#41B883"/>
<path d="M20.3613 42.8935C19.9284 43.1299 19.402 42.8091 19.4137 42.316L19.8683 23.1801C19.88 22.6871 20.4211 22.3916 20.8422 22.6483L22.9468 23.931C23.1465 24.0527 23.264 24.2735 23.2534 24.507L22.6897 36.9528C22.6671 37.4521 23.1995 37.7838 23.6377 37.5436L34.7073 31.4748C34.9083 31.3646 35.1529 31.3702 35.3487 31.4895L37.1871 32.6099C37.6082 32.8666 37.5936 33.4829 37.1607 33.7192L20.3613 42.8935Z" fill="url(#paint19_linear_184_2)"/>
<path fill-rule="evenodd" clip-rule="evenodd" d="M20.1886 23.1878L19.734 42.3237C19.7281 42.5702 19.9913 42.7306 20.2077 42.6124L37.0072 33.4381C37.2236 33.3199 37.231 33.0118 37.0204 32.8834L35.182 31.763C35.0841 31.7034 34.9618 31.7006 34.8613 31.7557L23.7917 37.8245C23.1343 38.1849 22.3358 37.6873 22.3697 36.9383L22.9334 24.4925C22.9387 24.3757 22.8799 24.2654 22.7801 24.2045L20.6755 22.9218C20.4649 22.7935 20.1944 22.9412 20.1886 23.1878ZM19.4137 42.316C19.402 42.8091 19.9284 43.1299 20.3613 42.8935L37.1607 33.7192C37.5936 33.4829 37.6082 32.8666 37.1871 32.6099L35.3487 31.4895C35.1529 31.3702 34.9083 31.3646 34.7073 31.4748L23.6377 37.5436C23.1995 37.7838 22.6671 37.4521 22.6897 36.9528L23.2534 24.507C23.264 24.2735 23.1465 24.0527 22.9468 23.931L20.8422 22.6483C20.4211 22.3916 19.88 22.6871 19.8683 23.1801L19.4137 42.316Z" fill="#243D32"/>
</g>
<g style="mix-blend-mode:luminosity">
<path d="M68.2151 9.02391L66.8768 -4.13444C66.8232 -4.66119 67.3954 -5.02187 67.8476 -4.74632L71.7481 -2.36907C71.9521 -2.24474 72.07 -2.01723 72.0539 -1.77887L71.7191 3.18092C71.6842 3.69809 72.246 4.04045 72.6896 3.7724L76.9444 1.2017C77.1489 1.07815 77.4051 1.07865 77.6091 1.20298L81.259 3.42745C81.7068 3.70041 81.6549 4.36651 81.17 4.56667L69.097 9.55125C68.7006 9.7149 68.2585 9.45052 68.2151 9.02391Z" fill="url(#paint20_linear_184_2)"/>
<path fill-rule="evenodd" clip-rule="evenodd" d="M67.1955 -4.16686L68.5338 8.9915C68.5555 9.2048 68.7765 9.33699 68.9747 9.25517L81.0478 4.27059C81.2902 4.17051 81.3162 3.83746 81.0923 3.70098L77.4424 1.47651C77.3404 1.41434 77.2123 1.41409 77.11 1.47587L72.8553 4.04657C72.1898 4.44865 71.3471 3.93511 71.3995 3.15934L71.7343 -1.80044C71.7423 -1.91962 71.6834 -2.03338 71.5814 -2.09554L67.6808 -4.4728C67.4548 -4.61057 67.1687 -4.43023 67.1955 -4.16686ZM66.8768 -4.13444L68.2151 9.02391C68.2585 9.45052 68.7006 9.7149 69.097 9.55125L81.17 4.56667C81.6549 4.36651 81.7068 3.70041 81.259 3.42745L77.6091 1.20298C77.4051 1.07865 77.1489 1.07815 76.9444 1.2017L72.6896 3.7724C72.246 4.04045 71.6842 3.69809 71.7191 3.18092L72.0539 -1.77887C72.07 -2.01723 71.9521 -2.24474 71.7481 -2.36907L67.8476 -4.74632C67.3954 -5.02187 66.8232 -4.66119 66.8768 -4.13444Z" fill="#243D32"/>
<path d="M66.0252 14.6814C65.5924 14.9178 65.066 14.5969 65.0777 14.1039L65.5323 -5.03201C65.544 -5.52505 66.085 -5.82052 66.5062 -5.56386L68.6108 -4.28117C68.8104 -4.15949 68.9279 -3.9387 68.9174 -3.70513L68.3537 8.74067C68.3311 9.23995 68.8634 9.57168 69.3017 9.33142L80.3713 3.26263C80.5723 3.15241 80.8169 3.15802 81.0127 3.27734L82.851 4.39776C83.2722 4.65442 83.2575 5.27072 82.8247 5.50709L66.0252 14.6814Z" fill="#41B883"/>
<path d="M66.0252 14.6814C65.5924 14.9178 65.066 14.5969 65.0777 14.1039L65.5323 -5.03201C65.544 -5.52505 66.085 -5.82052 66.5062 -5.56386L68.6108 -4.28117C68.8104 -4.15949 68.9279 -3.9387 68.9174 -3.70513L68.3537 8.74067C68.3311 9.23995 68.8634 9.57168 69.3017 9.33142L80.3713 3.26263C80.5723 3.15241 80.8169 3.15802 81.0127 3.27734L82.851 4.39776C83.2722 4.65442 83.2575 5.27072 82.8247 5.50709L66.0252 14.6814Z" fill="url(#paint21_linear_184_2)"/>
<path fill-rule="evenodd" clip-rule="evenodd" d="M65.8525 -5.02441L65.3979 14.1115C65.3921 14.358 65.6553 14.5184 65.8717 14.4002L82.6712 5.22596C82.8876 5.10777 82.8949 4.79962 82.6843 4.67129L80.846 3.55086C80.7481 3.49121 80.6258 3.4884 80.5253 3.54351L69.4557 9.6123C68.7983 9.9727 67.9998 9.47509 68.0337 8.72618L68.5974 -3.71962C68.6026 -3.83641 68.5439 -3.9468 68.4441 -4.00764L66.3394 -5.29033C66.1289 -5.41866 65.8584 -5.27092 65.8525 -5.02441ZM65.0777 14.1039C65.066 14.5969 65.5924 14.9178 66.0252 14.6814L82.8247 5.50709C83.2575 5.27072 83.2722 4.65442 82.851 4.39776L81.0127 3.27734C80.8169 3.15802 80.5723 3.15241 80.3713 3.26263L69.3017 9.33142C68.8634 9.57168 68.3311 9.23995 68.3537 8.74067L68.9174 -3.70513C68.9279 -3.9387 68.8104 -4.15949 68.6108 -4.28117L66.5062 -5.56386C66.085 -5.82052 65.544 -5.52505 65.5323 -5.03201L65.0777 14.1039Z" fill="#243D32"/>
</g>
<g style="mix-blend-mode:luminosity">
<path d="M96.5897 55.3645L84.2531 50.5955C83.7593 50.4046 83.697 49.731 84.1475 49.4528L88.0341 47.0528C88.2374 46.9273 88.4936 46.9253 88.6988 47.0476L92.9686 49.5934C93.4138 49.8588 93.9735 49.5132 93.9356 48.9962L93.5717 44.0385C93.5543 43.8002 93.6708 43.572 93.8741 43.4465L97.5109 41.2007C97.9571 40.9251 98.5274 41.2732 98.4861 41.7961L97.4593 54.8173C97.4256 55.2448 96.9896 55.5191 96.5897 55.3645Z" fill="url(#paint22_linear_184_2)"/>
<path fill-rule="evenodd" clip-rule="evenodd" d="M84.3686 50.2967L96.7052 55.0657C96.9052 55.143 97.1232 55.0059 97.14 54.7921L98.1668 41.7709C98.1874 41.5095 97.9023 41.3354 97.6792 41.4732L94.0424 43.719C93.9407 43.7818 93.8825 43.8959 93.8912 44.015L94.255 48.9728C94.3119 49.7482 93.4724 50.2667 92.8045 49.8685L88.5348 47.3227C88.4322 47.2616 88.3041 47.2626 88.2024 47.3253L84.3158 49.7254C84.0906 49.8645 84.1217 50.2013 84.3686 50.2967ZM84.2531 50.5955L96.5897 55.3645C96.9896 55.5191 97.4256 55.2448 97.4593 54.8173L98.4861 41.7961C98.5274 41.2732 97.9571 40.9251 97.5109 41.2007L93.8741 43.4465C93.6708 43.572 93.5543 43.8002 93.5717 44.0385L93.9356 48.9962C93.9735 49.5132 93.4138 49.8588 92.9686 49.5934L88.6988 47.0476C88.4936 46.9253 88.2374 46.9273 88.0341 47.0528L84.1475 49.4528C83.697 49.731 83.7593 50.4046 84.2531 50.5955Z" fill="#243D32"/>
<path d="M100.641 59.8801C100.655 60.373 100.131 60.697 99.6967 60.4631L82.8438 51.3874C82.4096 51.1535 82.3913 50.5373 82.811 50.2782L84.908 48.9832C85.107 48.8604 85.357 48.8557 85.5605 48.9709L96.4 55.1126C96.8348 55.359 97.3717 55.0348 97.3561 54.5352L96.9617 41.9173C96.9545 41.6882 97.0704 41.4727 97.2654 41.3522L99.0972 40.221C99.5168 39.9619 100.06 40.2542 100.074 40.7472L100.641 59.8801Z" fill="#41B883"/>
<path d="M100.641 59.8801C100.655 60.373 100.131 60.697 99.6967 60.4631L82.8438 51.3874C82.4096 51.1535 82.3913 50.5373 82.811 50.2782L84.908 48.9832C85.107 48.8604 85.357 48.8557 85.5605 48.9709L96.4 55.1126C96.8348 55.359 97.3717 55.0348 97.3561 54.5352L96.9617 41.9173C96.9545 41.6882 97.0704 41.4727 97.2654 41.3522L99.0972 40.221C99.5168 39.9619 100.06 40.2542 100.074 40.7472L100.641 59.8801Z" fill="url(#paint23_linear_184_2)"/>
<path fill-rule="evenodd" clip-rule="evenodd" d="M82.9957 51.1053L99.8486 60.1811C100.066 60.298 100.328 60.1361 100.321 59.8896L99.754 40.7567C99.7467 40.5102 99.4753 40.364 99.2655 40.4936L97.4337 41.6248C97.3362 41.685 97.2783 41.7927 97.2819 41.9073L97.6763 54.5252C97.6997 55.2745 96.8943 55.7609 96.2421 55.3913L85.4025 49.2496C85.3008 49.192 85.1758 49.1943 85.0763 49.2558L82.9793 50.5508C82.7695 50.6803 82.7786 50.9884 82.9957 51.1053ZM99.6967 60.4631C100.131 60.697 100.655 60.373 100.641 59.8801L100.074 40.7472C100.06 40.2542 99.5168 39.9619 99.0972 40.221L97.2654 41.3522C97.0704 41.4727 96.9545 41.6882 96.9617 41.9173L97.3561 54.5352C97.3717 55.0348 96.8348 55.359 96.4 55.1126L85.5605 48.9709C85.357 48.8557 85.107 48.8604 84.908 48.9832L82.811 50.2782C82.3913 50.5373 82.4096 51.1535 82.8438 51.3874L99.6967 60.4631Z" fill="#243D32"/>
</g>
<g style="mix-blend-mode:luminosity">
<path d="M9.46669 55.3645L-2.86984 50.5955C-3.36369 50.4046 -3.42594 49.731 -2.97545 49.4528L0.911128 47.0528C1.1144 46.9273 1.37062 46.9253 1.57582 47.0476L5.84557 49.5934C6.2908 49.8588 6.85053 49.5132 6.81259 48.9962L6.44876 44.0385C6.43127 43.8002 6.54781 43.572 6.75108 43.4465L10.3879 41.2007C10.8341 40.9251 11.4044 41.2732 11.3632 41.7961L10.3364 54.8173C10.3026 55.2448 9.86665 55.5191 9.46669 55.3645Z" fill="url(#paint24_linear_184_2)"/>
<path fill-rule="evenodd" clip-rule="evenodd" d="M-2.75434 50.2967L9.58219 55.0657C9.78217 55.143 10.0002 55.0059 10.017 54.7921L11.0438 41.7709C11.0644 41.5095 10.7793 41.3354 10.5562 41.4732L6.91939 43.719C6.81775 43.7818 6.75948 43.8959 6.76823 44.015L7.13206 48.9728C7.18896 49.7482 6.34936 50.2667 5.68153 49.8685L1.41178 47.3227C1.30918 47.2616 1.18107 47.2626 1.07943 47.3253L-2.80714 49.7254C-3.03239 49.8645 -3.00126 50.2013 -2.75434 50.2967ZM-2.86984 50.5955L9.46669 55.3645C9.86665 55.5191 10.3026 55.2448 10.3364 54.8173L11.3632 41.7961C11.4044 41.2732 10.8341 40.9251 10.3879 41.2007L6.75108 43.4465C6.54781 43.572 6.43127 43.8002 6.44876 44.0385L6.81259 48.9962C6.85053 49.5132 6.2908 49.8588 5.84557 49.5934L1.57582 47.0476C1.37062 46.9253 1.1144 46.9273 0.911128 47.0528L-2.97545 49.4528C-3.42594 49.731 -3.36369 50.4046 -2.86984 50.5955Z" fill="#243D32"/>
<path d="M13.5179 59.8801C13.5325 60.373 13.0079 60.697 12.5737 60.4631L-4.27918 51.3874C-4.7134 51.1535 -4.73165 50.5373 -4.31203 50.2782L-2.21497 48.9832C-2.01603 48.8604 -1.76596 48.8557 -1.56254 48.9709L9.27698 55.1126C9.71182 55.359 10.2488 55.0348 10.2331 54.5352L9.83872 41.9173C9.83156 41.6882 9.94739 41.4727 10.1425 41.3522L11.9742 40.221C12.3939 39.9619 12.9366 40.2542 12.9512 40.7472L13.5179 59.8801Z" fill="#41B883"/>
<path d="M13.5179 59.8801C13.5325 60.373 13.0079 60.697 12.5737 60.4631L-4.27918 51.3874C-4.7134 51.1535 -4.73165 50.5373 -4.31203 50.2782L-2.21497 48.9832C-2.01603 48.8604 -1.76596 48.8557 -1.56254 48.9709L9.27698 55.1126C9.71182 55.359 10.2488 55.0348 10.2331 54.5352L9.83872 41.9173C9.83156 41.6882 9.94739 41.4727 10.1425 41.3522L11.9742 40.221C12.3939 39.9619 12.9366 40.2542 12.9512 40.7472L13.5179 59.8801Z" fill="url(#paint25_linear_184_2)"/>
<path fill-rule="evenodd" clip-rule="evenodd" d="M-4.1273 51.1053L12.7256 60.1811C12.9427 60.298 13.205 60.1361 13.1977 59.8896L12.631 40.7567C12.6237 40.5102 12.3524 40.364 12.1425 40.4936L10.3108 41.6248C10.2132 41.685 10.1553 41.7927 10.1589 41.9073L10.5533 54.5252C10.5767 55.2745 9.77133 55.7609 9.11907 55.3913L-1.72045 49.2496C-1.82216 49.192 -1.94719 49.1943 -2.04666 49.2558L-4.14373 50.5508C-4.35353 50.6803 -4.34441 50.9884 -4.1273 51.1053ZM12.5737 60.4631C13.0079 60.697 13.5325 60.373 13.5179 59.8801L12.9512 40.7472C12.9366 40.2542 12.3939 39.9619 11.9742 40.221L10.1425 41.3522C9.94739 41.4727 9.83156 41.6882 9.83872 41.9173L10.2331 54.5352C10.2488 55.0348 9.71182 55.359 9.27698 55.1126L-1.56254 48.9709C-1.76596 48.8557 -2.01603 48.8604 -2.21497 48.9832L-4.31203 50.2782C-4.73165 50.5373 -4.7134 51.1535 -4.27918 51.3874L12.5737 60.4631Z" fill="#243D32"/>
</g>
<g style="mix-blend-mode:luminosity">
<path d="M44.729 17.0875L32.3925 12.3185C31.8986 12.1276 31.8364 11.454 32.2869 11.1758L36.1735 8.77578C36.3767 8.65026 36.633 8.64826 36.8382 8.77061L41.1079 11.3163C41.5531 11.5818 42.1129 11.2361 42.0749 10.7192L41.7111 5.76145C41.6936 5.52319 41.8101 5.29499 42.0134 5.16947L45.6502 2.92366C46.0965 2.64807 46.6667 2.99623 46.6255 3.51912L45.5987 16.5403C45.565 16.9678 45.129 17.2421 44.729 17.0875Z" fill="url(#paint26_linear_184_2)"/>
<path fill-rule="evenodd" clip-rule="evenodd" d="M32.508 12.0197L44.8445 16.7887C45.0445 16.866 45.2625 16.7289 45.2794 16.5151L46.3061 3.49394C46.3268 3.23249 46.0416 3.05841 45.8185 3.19621L42.1817 5.44201C42.0801 5.50477 42.0218 5.61887 42.0306 5.738L42.3944 10.6957C42.4513 11.4712 41.6117 11.9897 40.9439 11.5915L36.6741 9.04574C36.5715 8.98457 36.4434 8.98556 36.3418 9.04833L32.4552 11.4484C32.2299 11.5875 32.2611 11.9242 32.508 12.0197ZM32.3925 12.3185L44.729 17.0875C45.129 17.2421 45.565 16.9678 45.5987 16.5403L46.6255 3.51912C46.6667 2.99623 46.0965 2.64807 45.6502 2.92366L42.0134 5.16947C41.8101 5.29499 41.6936 5.52319 41.7111 5.76145L42.0749 10.7192C42.1129 11.2361 41.5531 11.5818 41.1079 11.3163L36.8382 8.77061C36.633 8.64826 36.3767 8.65026 36.1735 8.77578L32.2869 11.1758C31.8364 11.454 31.8986 12.1276 32.3925 12.3185Z" fill="#243D32"/>
<path d="M48.7802 21.6031C48.7948 22.096 48.2703 22.4199 47.836 22.1861L30.9831 13.1104C30.5489 12.8765 30.5307 12.2603 30.9503 12.0012L33.0474 10.7062C33.2463 10.5834 33.4964 10.5787 33.6998 10.6939L44.5393 16.8356C44.9742 17.082 45.5111 16.7577 45.4955 16.2582L45.1011 3.64032C45.0939 3.41118 45.2097 3.19567 45.4048 3.07521L47.2366 1.94404C47.6562 1.68492 48.199 1.97721 48.2136 2.47017L48.7802 21.6031Z" fill="#41B883"/>
<path d="M48.7802 21.6031C48.7948 22.096 48.2703 22.4199 47.836 22.1861L30.9831 13.1104C30.5489 12.8765 30.5307 12.2603 30.9503 12.0012L33.0474 10.7062C33.2463 10.5834 33.4964 10.5787 33.6998 10.6939L44.5393 16.8356C44.9742 17.082 45.5111 16.7577 45.4955 16.2582L45.1011 3.64032C45.0939 3.41118 45.2097 3.19567 45.4048 3.07521L47.2366 1.94404C47.6562 1.68492 48.199 1.97721 48.2136 2.47017L48.7802 21.6031Z" fill="url(#paint27_linear_184_2)"/>
<path fill-rule="evenodd" clip-rule="evenodd" d="M31.135 12.8283L47.9879 21.9041C48.205 22.021 48.4673 21.859 48.46 21.6126L47.8934 2.47965C47.8861 2.23317 47.6147 2.08702 47.4049 2.21658L45.5731 3.34776C45.4756 3.40799 45.4176 3.51574 45.4212 3.63031L45.8156 16.2482C45.8391 16.9975 45.0337 17.4839 44.3814 17.1143L33.5419 10.9726C33.4402 10.915 33.3151 10.9173 33.2157 10.9788L31.1186 12.2738C30.9088 12.4033 30.9179 12.7114 31.135 12.8283ZM47.836 22.1861C48.2703 22.4199 48.7948 22.096 48.7802 21.6031L48.2136 2.47017C48.199 1.97721 47.6562 1.68492 47.2366 1.94404L45.4048 3.07521C45.2097 3.19567 45.0939 3.41118 45.1011 3.64032L45.4955 16.2582C45.5111 16.7577 44.9742 17.082 44.5393 16.8356L33.6998 10.6939C33.4964 10.5787 33.2463 10.5834 33.0474 10.7062L30.9503 12.0012C30.5307 12.2603 30.5489 12.8765 30.9831 13.1104L47.836 22.1861Z" fill="#243D32"/>
</g>
<g style="mix-blend-mode:luminosity">
<path d="M96.5897 24.832L84.2531 20.063C83.7593 19.8721 83.697 19.1985 84.1475 18.9203L88.0341 16.5203C88.2374 16.3948 88.4936 16.3928 88.6988 16.5151L92.9686 19.0609C93.4138 19.3263 93.9735 18.9807 93.9356 18.4637L93.5717 13.506C93.5543 13.2677 93.6708 13.0395 93.8741 12.914L97.5109 10.6682C97.9571 10.3926 98.5274 10.7407 98.4861 11.2636L97.4593 24.2848C97.4256 24.7123 96.9896 24.9866 96.5897 24.832Z" fill="url(#paint28_linear_184_2)"/>
<path fill-rule="evenodd" clip-rule="evenodd" d="M84.3686 19.7642L96.7052 24.5332C96.9052 24.6105 97.1232 24.4734 97.14 24.2596L98.1668 11.2384C98.1874 10.977 97.9023 10.8029 97.6792 10.9407L94.0424 13.1865C93.9407 13.2493 93.8825 13.3634 93.8912 13.4825L94.255 18.4402C94.3119 19.2157 93.4724 19.7342 92.8045 19.336L88.5348 16.7902C88.4322 16.7291 88.3041 16.7301 88.2024 16.7928L84.3158 19.1929C84.0906 19.332 84.1217 19.6688 84.3686 19.7642ZM84.2531 20.063L96.5897 24.832C96.9896 24.9866 97.4256 24.7123 97.4593 24.2848L98.4861 11.2636C98.5274 10.7407 97.9571 10.3926 97.5109 10.6682L93.8741 12.914C93.6708 13.0395 93.5543 13.2677 93.5717 13.506L93.9356 18.4637C93.9735 18.9807 93.4138 19.3263 92.9686 19.0609L88.6988 16.5151C88.4936 16.3928 88.2374 16.3948 88.0341 16.5203L84.1475 18.9203C83.697 19.1985 83.7593 19.8721 84.2531 20.063Z" fill="#243D32"/>
<path d="M100.641 29.3476C100.655 29.8405 100.131 30.1644 99.6967 29.9306L82.8438 20.8549C82.4096 20.621 82.3913 20.0048 82.811 19.7457L84.908 18.4507C85.107 18.3279 85.357 18.3232 85.5605 18.4384L96.4 24.5801C96.8348 24.8265 97.3717 24.5023 97.3561 24.0027L96.9617 11.3848C96.9545 11.1557 97.0704 10.9402 97.2654 10.8197L99.0972 9.68854C99.5168 9.42942 100.06 9.72172 100.074 10.2147L100.641 29.3476Z" fill="#41B883"/>
<path d="M100.641 29.3476C100.655 29.8405 100.131 30.1644 99.6967 29.9306L82.8438 20.8549C82.4096 20.621 82.3913 20.0048 82.811 19.7457L84.908 18.4507C85.107 18.3279 85.357 18.3232 85.5605 18.4384L96.4 24.5801C96.8348 24.8265 97.3717 24.5023 97.3561 24.0027L96.9617 11.3848C96.9545 11.1557 97.0704 10.9402 97.2654 10.8197L99.0972 9.68854C99.5168 9.42942 100.06 9.72172 100.074 10.2147L100.641 29.3476Z" fill="url(#paint29_linear_184_2)"/>
<path fill-rule="evenodd" clip-rule="evenodd" d="M82.9957 20.5728L99.8486 29.6486C100.066 29.7655 100.328 29.6036 100.321 29.3571L99.754 10.2242C99.7467 9.97768 99.4753 9.83153 99.2655 9.96109L97.4337 11.0923C97.3362 11.1525 97.2783 11.2602 97.2819 11.3748L97.6763 23.9927C97.6997 24.742 96.8943 25.2284 96.2421 24.8588L85.4025 18.7171C85.3008 18.6595 85.1758 18.6618 85.0763 18.7233L82.9793 20.0183C82.7695 20.1478 82.7786 20.4559 82.9957 20.5728ZM99.6967 29.9306C100.131 30.1644 100.655 29.8405 100.641 29.3476L100.074 10.2147C100.06 9.72172 99.5168 9.42942 99.0972 9.68854L97.2654 10.8197C97.0704 10.9402 96.9545 11.1557 96.9617 11.3848L97.3561 24.0027C97.3717 24.5023 96.8348 24.8265 96.4 24.5801L85.5605 18.4384C85.357 18.3232 85.107 18.3279 84.908 18.4507L82.811 19.7457C82.3913 20.0048 82.4096 20.621 82.8438 20.8549L99.6967 29.9306Z" fill="#243D32"/>
</g>
<g style="mix-blend-mode:luminosity">
<path d="M9.46669 24.832L-2.86984 20.063C-3.36369 19.8721 -3.42594 19.1985 -2.97545 18.9203L0.911128 16.5203C1.1144 16.3948 1.37062 16.3928 1.57582 16.5151L5.84557 19.0609C6.2908 19.3263 6.85053 18.9807 6.81259 18.4637L6.44876 13.506C6.43127 13.2677 6.54781 13.0395 6.75108 12.914L10.3879 10.6682C10.8341 10.3926 11.4044 10.7407 11.3632 11.2636L10.3364 24.2848C10.3026 24.7123 9.86665 24.9866 9.46669 24.832Z" fill="url(#paint30_linear_184_2)"/>
<path fill-rule="evenodd" clip-rule="evenodd" d="M-2.75434 19.7642L9.58219 24.5332C9.78217 24.6105 10.0002 24.4734 10.017 24.2596L11.0438 11.2384C11.0644 10.977 10.7793 10.8029 10.5562 10.9407L6.91939 13.1865C6.81775 13.2493 6.75948 13.3634 6.76823 13.4825L7.13206 18.4402C7.18896 19.2157 6.34936 19.7342 5.68153 19.336L1.41178 16.7902C1.30918 16.7291 1.18107 16.7301 1.07943 16.7928L-2.80714 19.1929C-3.03239 19.332 -3.00126 19.6688 -2.75434 19.7642ZM-2.86984 20.063L9.46669 24.832C9.86665 24.9866 10.3026 24.7123 10.3364 24.2848L11.3632 11.2636C11.4044 10.7407 10.8341 10.3926 10.3879 10.6682L6.75108 12.914C6.54781 13.0395 6.43127 13.2677 6.44876 13.506L6.81259 18.4637C6.85053 18.9807 6.2908 19.3263 5.84557 19.0609L1.57582 16.5151C1.37062 16.3928 1.1144 16.3948 0.911128 16.5203L-2.97545 18.9203C-3.42594 19.1985 -3.36369 19.8721 -2.86984 20.063Z" fill="#243D32"/>
<path d="M13.5179 29.3476C13.5325 29.8405 13.0079 30.1644 12.5737 29.9306L-4.27918 20.8549C-4.7134 20.621 -4.73165 20.0048 -4.31203 19.7457L-2.21497 18.4507C-2.01603 18.3279 -1.76596 18.3232 -1.56254 18.4384L9.27698 24.5801C9.71182 24.8265 10.2488 24.5023 10.2331 24.0027L9.83872 11.3848C9.83156 11.1557 9.94739 10.9402 10.1425 10.8197L11.9742 9.68854C12.3939 9.42942 12.9366 9.72172 12.9512 10.2147L13.5179 29.3476Z" fill="#41B883"/>
<path d="M13.5179 29.3476C13.5325 29.8405 13.0079 30.1644 12.5737 29.9306L-4.27918 20.8549C-4.7134 20.621 -4.73165 20.0048 -4.31203 19.7457L-2.21497 18.4507C-2.01603 18.3279 -1.76596 18.3232 -1.56254 18.4384L9.27698 24.5801C9.71182 24.8265 10.2488 24.5023 10.2331 24.0027L9.83872 11.3848C9.83156 11.1557 9.94739 10.9402 10.1425 10.8197L11.9742 9.68854C12.3939 9.42942 12.9366 9.72172 12.9512 10.2147L13.5179 29.3476Z" fill="url(#paint31_linear_184_2)"/>
<path fill-rule="evenodd" clip-rule="evenodd" d="M-4.1273 20.5728L12.7256 29.6486C12.9427 29.7655 13.205 29.6036 13.1977 29.3571L12.631 10.2242C12.6237 9.97768 12.3524 9.83153 12.1425 9.96109L10.3108 11.0923C10.2132 11.1525 10.1553 11.2602 10.1589 11.3748L10.5533 23.9927C10.5767 24.742 9.77133 25.2284 9.11907 24.8588L-1.72045 18.7171C-1.82216 18.6595 -1.94719 18.6618 -2.04666 18.7233L-4.14373 20.0183C-4.35353 20.1478 -4.34441 20.4559 -4.1273 20.5728ZM12.5737 29.9306C13.0079 30.1644 13.5325 29.8405 13.5179 29.3476L12.9512 10.2147C12.9366 9.72172 12.3939 9.42942 11.9742 9.68854L10.1425 10.8197C9.94739 10.9402 9.83156 11.1557 9.83872 11.3848L10.2331 24.0027C10.2488 24.5023 9.71182 24.8265 9.27698 24.5801L-1.56254 18.4384C-1.76596 18.3232 -2.01603 18.3279 -2.21497 18.4507L-4.31203 19.7457C-4.73165 20.0048 -4.7134 20.621 -4.27918 20.8549L12.5737 29.9306Z" fill="#243D32"/>
</g>
</g>
<g filter="url(#filter1_i_184_2)">
<path fill-rule="evenodd" clip-rule="evenodd" d="M60 117.303C91.6478 117.303 117.303 91.6478 117.303 60C117.303 28.3522 91.6478 2.69663 60 2.69663C28.3522 2.69663 2.69663 28.3522 2.69663 60C2.69663 91.6478 28.3522 117.303 60 117.303ZM60 120C93.1371 120 120 93.1371 120 60C120 26.8629 93.1371 0 60 0C26.8629 0 0 26.8629 0 60C0 93.1371 26.8629 120 60 120Z" fill="#006F41"/>
</g>
<path d="M92.8421 44.3368V29.1655C92.8421 29.1655 91.8294 21.7262 84.0235 19.968C84.0235 19.968 87.2039 13.6323 78.9637 12.1348H48.6031C37.505 12.1348 28.5062 20.5517 28.5062 30.9362V42.0818V93.4382C43.321 99.2378 76.9288 107.357 92.8421 93.4382V44.3368Z" fill="#584C39"/>
<path d="M60.586 92.9833L60.6222 93.0069V92.9755L60.6379 92.9975L60.6568 92.9849L60.663 92.977V92.9818L73.9845 84.0783H73.9861V69.3229C72.9783 70.0163 72.0114 70.7694 71.1026 71.5885C65.2571 76.8728 59.5232 75.9671 59.5232 75.9671C56.0266 76.0599 51.0442 72.4768 48.9201 70.8087C48.3793 70.3842 47.8243 69.9785 47.2551 69.5934V84.0767L60.586 92.9833Z" fill="#C59E4E"/>
<path d="M60.6207 87.7589V87.7573L56.3112 93.628L60.6207 87.7589Z" fill="#F6C358"/>
<path d="M59.5233 83.4397C59.5233 83.4397 65.2572 84.3453 71.1028 79.0611C72.0115 78.2404 72.9784 77.4888 73.9862 76.7955V71.0354H47.2553V77.0659C47.8244 77.4495 48.3794 77.8567 48.9202 78.2812C51.0443 79.9494 56.0267 83.5325 59.5233 83.4397Z" fill="#8E7237"/>
<path d="M59.5233 78.7672C59.5233 78.7672 65.2572 79.6728 71.1027 74.3886C72.0115 73.5679 72.9784 72.8164 73.9862 72.123C74.0853 72.0538 74.1827 71.9831 74.2833 71.9155C76.8712 70.1766 81.8442 65.3577 82.8976 53.5975V38.0152C82.8976 38.0152 82.2985 32.5014 76.4247 30.3443L67.6957 27.28C66.0685 26.7093 64.2919 26.7313 62.6788 27.3429C60.8707 28.03 58.4825 28.9183 56.9795 29.3994C56.2594 29.6305 55.5078 29.7453 54.7516 29.7453H46.4581C46.4581 29.7453 39.9853 30.5849 38.3675 37.8344V50.9263V53.956C38.3675 53.956 38.6489 66.691 47.0807 72.2724C47.1405 72.3117 47.1955 72.3541 47.2552 72.3934C47.8244 72.7771 48.3794 73.1842 48.9202 73.6088C51.0443 75.2769 56.0267 78.86 59.5233 78.7672Z" fill="#FCD462"/>
<path fill-rule="evenodd" clip-rule="evenodd" d="M15.0293 94.4003L39.3031 85.6625C46.8851 93.6803 66.6043 102.306 81.9397 85.6625L106.214 94.4003C110.109 95.802 112.94 99.1878 113.617 103.253L116.126 114.025C116.646 117.154 114.22 120 111.032 120H10.2107C7.02281 120 4.59642 117.154 5.1166 114.025L7.62617 103.253C8.30289 99.1878 11.1337 95.802 15.0293 94.4003Z" fill="#424242"/>
<path d="M47.0764 82.8494L39.3031 85.6625C46.8851 93.6803 66.6043 102.306 81.9397 85.6625L73.9821 82.8494C64.8505 91.9344 52.2402 86.6348 47.0764 82.8494Z" fill="#242424"/>
<path d="M48.0545 41.1463C51.0343 31.3667 59.0224 28.8287 62.8498 27.2015L46.4397 29.6538C45.397 37.6687 45.0746 50.926 48.0545 41.1463Z" fill="#584C39"/>
<path d="M50.8247 41.9153C54.2141 30.7631 63.2743 27.8611 67.6159 26.0019L49.0063 28.8154C47.8153 37.9536 47.4354 53.0675 50.8247 41.9153Z" fill="#574932" fill-opacity="0.45"/>
<path d="M68.0008 115.572H66.4286V121.203H64.8563V123.616H63.2841V125.225H61.7119V131.66H63.2841V133.269H60.1397V128.443H58.5674V126.834H56.9952V128.443H55.423V130.052H53.8508V131.66H55.423V133.269H52.2786V126.834H50.7063V125.225H49.1341V123.616H47.5619V122.008H45.9897V120.399H44.4174V110.746H45.9897V113.964H47.5619V115.572H49.1341V117.181H52.2786V115.572H53.8508V113.964H56.2091V112.355H58.5674V110.746H60.1397V100.289H61.7119V98.6802H74.2897V100.289H75.8619V107.529H68.0008V109.137H72.7175V110.746H66.4286V113.964H69.573V117.181H68.0008V115.572ZM63.2841 101.093V102.702H64.8563V101.093H63.2841Z" fill="url(#paint32_radial_184_2)"/>
<g filter="url(#filter2_d_184_2)">
<path d="M82.6831 60.5246C82.6831 59.78 83.2868 59.1763 84.0314 59.1763C84.7761 59.1763 85.3797 59.78 85.3797 60.5246V63.2212C85.3797 63.9659 84.7761 64.5696 84.0314 64.5696C83.2868 64.5696 82.6831 63.9659 82.6831 63.2212V60.5246Z" fill="#DEDEDE"/>
<path d="M83.3573 66.2338C83.3573 65.8615 83.6591 65.5596 84.0314 65.5596V65.5596C84.4037 65.5596 84.7056 65.8615 84.7056 66.2338V72.9754C84.7056 73.3477 84.4037 73.6495 84.0314 73.6495V73.6495C83.6591 73.6495 83.3573 73.3477 83.3573 72.9754V66.2338Z" fill="#DEDEDE"/>
<path d="M82.4287 68.9174C82.0564 68.9174 81.7546 68.6156 81.7546 68.2433V68.2433C81.7546 67.871 82.0564 67.5691 82.4287 67.5691H85.6341C86.0064 67.5691 86.3083 67.871 86.3083 68.2433V68.2433C86.3083 68.6156 86.0064 68.9174 85.6341 68.9174H82.4287Z" fill="#DEDEDE"/>
</g>
</g>
<defs>
<filter id="filter0_i_184_2" x="0" y="0" width="120" height="120" filterUnits="userSpaceOnUse" color-interpolation-filters="sRGB">
<feFlood flood-opacity="0" result="BackgroundImageFix"/>
<feBlend mode="normal" in="SourceGraphic" in2="BackgroundImageFix" result="shape"/>
<feColorMatrix in="SourceAlpha" type="matrix" values="0 0 0 0 0 0 0 0 0 0 0 0 0 0 0 0 0 0 127 0" result="hardAlpha"/>
<feOffset dy="-22"/>
<feComposite in2="hardAlpha" operator="arithmetic" k2="-1" k3="1"/>
<feColorMatrix type="matrix" values="0 0 0 0 0 0 0 0 0 0.533333 0 0 0 0 0.313535 0 0 0 1 0"/>
<feBlend mode="normal" in2="shape" result="effect1_innerShadow_184_2"/>
</filter>
<filter id="filter1_i_184_2" x="0" y="0" width="120" height="120" filterUnits="userSpaceOnUse" color-interpolation-filters="sRGB">
<feFlood flood-opacity="0" result="BackgroundImageFix"/>
<feBlend mode="normal" in="SourceGraphic" in2="BackgroundImageFix" result="shape"/>
<feColorMatrix in="SourceAlpha" type="matrix" values="0 0 0 0 0 0 0 0 0 0 0 0 0 0 0 0 0 0 127 0" result="hardAlpha"/>
<feOffset dy="-22"/>
<feComposite in2="hardAlpha" operator="arithmetic" k2="-1" k3="1"/>
<feColorMatrix type="matrix" values="0 0 0 0 0 0 0 0 0 0.533333 0 0 0 0 0.313535 0 0 0 1 0"/>
<feBlend mode="normal" in2="shape" result="effect1_innerShadow_184_2"/>
</filter>
<filter id="filter2_d_184_2" x="81.2546" y="59.1763" width="5.0537" height="15.4732" filterUnits="userSpaceOnUse" color-interpolation-filters="sRGB">
<feFlood flood-opacity="0" result="BackgroundImageFix"/>
<feColorMatrix in="SourceAlpha" type="matrix" values="0 0 0 0 0 0 0 0 0 0 0 0 0 0 0 0 0 0 127 0" result="hardAlpha"/>
<feOffset dx="-0.5" dy="1"/>
<feComposite in2="hardAlpha" operator="out"/>
<feColorMatrix type="matrix" values="0 0 0 0 0 0 0 0 0 0 0 0 0 0 0 0 0 0 0.31 0"/>
<feBlend mode="normal" in2="BackgroundImageFix" result="effect1_dropShadow_184_2"/>
<feBlend mode="normal" in="SourceGraphic" in2="effect1_dropShadow_184_2" result="shape"/>
</filter>
<linearGradient id="paint0_linear_184_2" x1="105.976" y1="74.5473" x2="87.2502" y2="85.9989" gradientUnits="userSpaceOnUse">
<stop stop-color="#324559"/>
<stop offset="1" stop-color="#7C96B1"/>
</linearGradient>
<linearGradient id="paint1_linear_184_2" x1="87.4909" y1="85.8584" x2="105.714" y2="74.7143" gradientUnits="userSpaceOnUse">
<stop stop-color="#3DE098"/>
<stop offset="1" stop-color="#41B883"/>
</linearGradient>
<linearGradient id="paint2_linear_184_2" x1="18.8533" y1="74.5473" x2="0.127169" y2="85.9989" gradientUnits="userSpaceOnUse">
<stop stop-color="#324559"/>
<stop offset="1" stop-color="#7C96B1"/>
</linearGradient>
<linearGradient id="paint3_linear_184_2" x1="0.367903" y1="85.8584" x2="18.5911" y2="74.7143" gradientUnits="userSpaceOnUse">
<stop stop-color="#3DE098"/>
<stop offset="1" stop-color="#41B883"/>
</linearGradient>
<linearGradient id="paint4_linear_184_2" x1="51.5849" y1="37.6714" x2="32.8588" y2="49.123" gradientUnits="userSpaceOnUse">
<stop stop-color="#324559"/>
<stop offset="1" stop-color="#7C96B1"/>
</linearGradient>
<linearGradient id="paint5_linear_184_2" x1="33.0995" y1="48.9825" x2="51.3227" y2="37.8385" gradientUnits="userSpaceOnUse">
<stop stop-color="#3DE098"/>
<stop offset="1" stop-color="#41B883"/>
</linearGradient>
<linearGradient id="paint6_linear_184_2" x1="121.046" y1="66.9278" x2="102.302" y2="55.5045" gradientUnits="userSpaceOnUse">
<stop stop-color="#324559"/>
<stop offset="1" stop-color="#7C96B1"/>
</linearGradient>
<linearGradient id="paint7_linear_184_2" x1="102.537" y1="55.6544" x2="120.777" y2="66.771" gradientUnits="userSpaceOnUse">
<stop stop-color="#3DE098"/>
<stop offset="1" stop-color="#41B883"/>
</linearGradient>
<linearGradient id="paint8_linear_184_2" x1="121.046" y1="94.3269" x2="102.302" y2="82.9036" gradientUnits="userSpaceOnUse">
<stop stop-color="#324559"/>
<stop offset="1" stop-color="#7C96B1"/>
</linearGradient>
<linearGradient id="paint9_linear_184_2" x1="102.537" y1="83.0535" x2="120.777" y2="94.1701" gradientUnits="userSpaceOnUse">
<stop stop-color="#3DE098"/>
<stop offset="1" stop-color="#41B883"/>
</linearGradient>
<linearGradient id="paint10_linear_184_2" x1="33.9228" y1="66.9278" x2="15.1795" y2="55.5045" gradientUnits="userSpaceOnUse">
<stop stop-color="#324559"/>
<stop offset="1" stop-color="#7C96B1"/>
</linearGradient>
<linearGradient id="paint11_linear_184_2" x1="15.4145" y1="55.6544" x2="33.6544" y2="66.771" gradientUnits="userSpaceOnUse">
<stop stop-color="#3DE098"/>
<stop offset="1" stop-color="#41B883"/>
</linearGradient>
<linearGradient id="paint12_linear_184_2" x1="33.9228" y1="96.6368" x2="15.1795" y2="85.2134" gradientUnits="userSpaceOnUse">
<stop stop-color="#324559"/>
<stop offset="1" stop-color="#7C96B1"/>
</linearGradient>
<linearGradient id="paint13_linear_184_2" x1="15.4145" y1="85.3634" x2="33.6544" y2="96.4799" gradientUnits="userSpaceOnUse">
<stop stop-color="#3DE098"/>
<stop offset="1" stop-color="#41B883"/>
</linearGradient>
<linearGradient id="paint14_linear_184_2" x1="66.6544" y1="30.052" x2="47.9111" y2="18.6286" gradientUnits="userSpaceOnUse">
<stop stop-color="#324559"/>
<stop offset="1" stop-color="#7C96B1"/>
</linearGradient>
<linearGradient id="paint15_linear_184_2" x1="48.1461" y1="18.7785" x2="66.386" y2="29.8951" gradientUnits="userSpaceOnUse">
<stop stop-color="#3DE098"/>
<stop offset="1" stop-color="#41B883"/>
</linearGradient>
<linearGradient id="paint16_linear_184_2" x1="121.046" y1="40.6954" x2="102.302" y2="29.272" gradientUnits="userSpaceOnUse">
<stop stop-color="#324559"/>
<stop offset="1" stop-color="#7C96B1"/>
</linearGradient>
<linearGradient id="paint17_linear_184_2" x1="102.537" y1="29.4219" x2="120.777" y2="40.5385" gradientUnits="userSpaceOnUse">
<stop stop-color="#3DE098"/>
<stop offset="1" stop-color="#41B883"/>
</linearGradient>
<linearGradient id="paint18_linear_184_2" x1="33.9228" y1="40.6954" x2="15.1795" y2="29.272" gradientUnits="userSpaceOnUse">
<stop stop-color="#324559"/>
<stop offset="1" stop-color="#7C96B1"/>
</linearGradient>
<linearGradient id="paint19_linear_184_2" x1="15.4145" y1="29.4219" x2="33.6544" y2="40.5385" gradientUnits="userSpaceOnUse">
<stop stop-color="#3DE098"/>
<stop offset="1" stop-color="#41B883"/>
</linearGradient>
<linearGradient id="paint20_linear_184_2" x1="79.5868" y1="12.4832" x2="60.8434" y2="1.05982" gradientUnits="userSpaceOnUse">
<stop stop-color="#324559"/>
<stop offset="1" stop-color="#7C96B1"/>
</linearGradient>
<linearGradient id="paint21_linear_184_2" x1="61.0784" y1="1.20973" x2="79.3184" y2="12.3263" gradientUnits="userSpaceOnUse">
<stop stop-color="#3DE098"/>
<stop offset="1" stop-color="#41B883"/>
</linearGradient>
<linearGradient id="paint22_linear_184_2" x1="104.826" y1="46.7946" x2="86.1499" y2="58.3275" gradientUnits="userSpaceOnUse">
<stop stop-color="#324559"/>
<stop offset="1" stop-color="#7C96B1"/>
</linearGradient>
<linearGradient id="paint23_linear_184_2" x1="86.39" y1="58.186" x2="104.565" y2="46.9627" gradientUnits="userSpaceOnUse">
<stop stop-color="#3DE098"/>
<stop offset="1" stop-color="#41B883"/>
</linearGradient>
<linearGradient id="paint24_linear_184_2" x1="17.703" y1="46.7946" x2="-0.973098" y2="58.3275" gradientUnits="userSpaceOnUse">
<stop stop-color="#324559"/>
<stop offset="1" stop-color="#7C96B1"/>
</linearGradient>
<linearGradient id="paint25_linear_184_2" x1="-0.732977" y1="58.186" x2="17.4416" y2="46.9627" gradientUnits="userSpaceOnUse">
<stop stop-color="#3DE098"/>
<stop offset="1" stop-color="#41B883"/>
</linearGradient>
<linearGradient id="paint26_linear_184_2" x1="52.9653" y1="8.51755" x2="34.2892" y2="20.0505" gradientUnits="userSpaceOnUse">
<stop stop-color="#324559"/>
<stop offset="1" stop-color="#7C96B1"/>
</linearGradient>
<linearGradient id="paint27_linear_184_2" x1="34.5294" y1="19.9089" x2="52.7039" y2="8.68572" gradientUnits="userSpaceOnUse">
<stop stop-color="#3DE098"/>
<stop offset="1" stop-color="#41B883"/>
</linearGradient>
<linearGradient id="paint28_linear_184_2" x1="104.826" y1="16.2621" x2="86.1499" y2="27.795" gradientUnits="userSpaceOnUse">
<stop stop-color="#324559"/>
<stop offset="1" stop-color="#7C96B1"/>
</linearGradient>
<linearGradient id="paint29_linear_184_2" x1="86.39" y1="27.6535" x2="104.565" y2="16.4302" gradientUnits="userSpaceOnUse">
<stop stop-color="#3DE098"/>
<stop offset="1" stop-color="#41B883"/>
</linearGradient>
<linearGradient id="paint30_linear_184_2" x1="17.703" y1="16.2621" x2="-0.973098" y2="27.795" gradientUnits="userSpaceOnUse">
<stop stop-color="#324559"/>
<stop offset="1" stop-color="#7C96B1"/>
</linearGradient>
<linearGradient id="paint31_linear_184_2" x1="-0.732977" y1="27.6535" x2="17.4416" y2="16.4302" gradientUnits="userSpaceOnUse">
<stop stop-color="#3DE098"/>
<stop offset="1" stop-color="#41B883"/>
</linearGradient>
<radialGradient id="paint32_radial_184_2" cx="0" cy="0" r="1" gradientUnits="userSpaceOnUse" gradientTransform="translate(63.3894 98.6802) rotate(90) scale(28.0312)">
<stop stop-color="white"/>
<stop offset="1" stop-color="#626262"/>
</radialGradient>
<clipPath id="clip0_184_2">
<rect width="120" height="120" rx="60" fill="white"/>
</clipPath>
</defs>
</svg>
