<svg width="18" height="18" viewBox="0 0 18 18" fill="none" xmlns="http://www.w3.org/2000/svg">
<path d="M5 0C4.46957 0 3.96086 0.210714 3.58579 0.585786C3.21071 0.960859 3 1.46957 3 2V6C3 6.53043 2.78929 7.03914 2.41421 7.41421C2.03914 7.78929 1.53043 8 1 8H0V10H1C1.53043 10 2.03914 10.2107 2.41421 10.5858C2.78929 10.9609 3 11.4696 3 12V16C3 16.5304 3.21071 17.0391 3.58579 17.4142C3.96086 17.7893 4.46957 18 5 18H7V16H5V11C5 10.4696 4.78929 9.96086 4.41421 9.58579C4.03914 9.21071 3.53043 9 3 9C3.53043 9 4.03914 8.78929 4.41421 8.41421C4.78929 8.03914 5 7.53043 5 7V2H7V0H5ZM13 0C13.5304 0 14.0391 0.210714 14.4142 0.585786C14.7893 0.960859 15 1.46957 15 2V6C15 6.53043 15.2107 7.03914 15.5858 7.41421C15.9609 7.78929 16.4696 8 17 8H18V10H17C16.4696 10 15.9609 10.2107 15.5858 10.5858C15.2107 10.9609 15 11.4696 15 12V16C15 16.5304 14.7893 17.0391 14.4142 17.4142C14.0391 17.7893 13.5304 18 13 18H11V16H13V11C13 10.4696 13.2107 9.96086 13.5858 9.58579C13.9609 9.21071 14.4696 9 15 9C14.4696 9 13.9609 8.78929 13.5858 8.41421C13.2107 8.03914 13 7.53043 13 7V2H11V0H13Z" fill="#4659A8"/>
</svg>
