<svg width="41" height="40" viewBox="0 0 41 40" fill="none" xmlns="http://www.w3.org/2000/svg">
<path d="M8.4834 19.8945V31.5167H20.1056L17.6818 29.0929H10.9072V22.3183L8.4834 19.8945Z" fill="#827BB6"/>
<path d="M39.8354 37.9276L36.3572 34.401V37.5762H2.42383V32.5468H4.84765V30.6077H2.42383V22.5485H4.84765V20.6095H2.42383V12.8533H4.84765V10.9142H2.42383V4.13965L21.7416 23.3484V19.9308L2.07238 0.358501C1.90287 0.187587 1.6863 0.071025 1.45029 0.0236762C1.21427 -0.0236726 0.969501 0.000336942 0.747184 0.092644C0.524867 0.184951 0.335075 0.341373 0.202006 0.541968C0.0689375 0.742562 -0.00137937 0.978241 2.05018e-05 1.21896V38.7881C2.05018e-05 39.1095 0.127703 39.4177 0.35498 39.645C0.582256 39.8723 0.89051 40 1.21193 40H38.9749C39.2157 40.0014 39.4513 39.9311 39.6519 39.798C39.8525 39.6649 40.009 39.4751 40.1013 39.2528C40.1936 39.0305 40.2176 38.7857 40.1702 38.5497C40.1229 38.3137 40.0063 38.0971 39.8354 37.9276Z" fill="#827BB6"/>
<path d="M26.662 35.1524H31.5097C32.1525 35.1524 32.769 34.8971 33.2236 34.4425C33.6781 33.988 33.9335 33.3715 33.9335 32.7286V9.33881L31.1461 4.21245C30.9305 3.83896 30.6192 3.52975 30.2443 3.31672C29.8693 3.10368 29.4443 2.99454 29.0131 3.00054C28.5722 3.00404 28.1405 3.12777 27.7647 3.35841C27.3888 3.58904 27.083 3.91784 26.8802 4.3094L24.2382 9.36305V32.7286C24.2382 33.3715 24.4936 33.988 24.9481 34.4425C25.4027 34.8971 26.0192 35.1524 26.662 35.1524ZM26.662 9.94477L29.0131 5.37588L31.5097 9.95689V27.881H26.662V9.94477ZM26.662 29.8564H31.5097V32.8135H26.662V29.8564Z" fill="#827BB6"/>
</svg>
