<svg width="89" height="89" viewBox="0 0 89 89" fill="none" xmlns="http://www.w3.org/2000/svg">
<g clip-path="url(#clip0_209_70)">
<rect width="89" height="89" rx="44.5" fill="#00DC82"/>
<g filter="url(#filter0_i_209_70)">
<path fill-rule="evenodd" clip-rule="evenodd" d="M44.5 87C67.9721 87 87 67.9721 87 44.5C87 21.0279 67.9721 2 44.5 2C21.0279 2 2 21.0279 2 44.5C2 67.9721 21.0279 87 44.5 87ZM44.5 89C69.0767 89 89 69.0767 89 44.5C89 19.9233 69.0767 0 44.5 0C19.9233 0 0 19.9233 0 44.5C0 69.0767 19.9233 89 44.5 89Z" fill="#006F41"/>
</g>
<path d="M68.8579 32.8831V21.6311C68.8579 21.6311 68.1068 16.1136 62.3174 14.8096C62.3174 14.8096 64.6762 10.1106 58.5648 9H36.0473C27.8162 9 21.1421 15.2425 21.1421 22.9443V31.2107V69.3C32.1297 73.6014 57.0555 79.6233 68.8579 69.3V32.8831Z" fill="#584C39"/>
<path d="M44.9346 68.9627L44.9615 68.9801V68.9568L44.9731 68.9731L44.9871 68.9638L44.9918 68.958V68.9615L54.8718 62.3581H54.873V51.4145C54.1256 51.9288 53.4084 52.4873 52.7344 53.0948C48.399 57.014 44.1464 56.3423 44.1464 56.3423C41.553 56.4111 37.8578 53.7537 36.2824 52.5165C35.8813 52.2016 35.4697 51.9008 35.0475 51.6151V62.3569L44.9346 68.9627Z" fill="#C59E4E"/>
<path d="M44.9604 65.0879V65.0867L41.7642 69.4408L44.9604 65.0879Z" fill="#F6C358"/>
<path d="M44.1465 61.8845C44.1465 61.8845 48.3991 62.5561 52.7345 58.637C53.4085 58.0283 54.1257 57.4709 54.8731 56.9567V52.6846H35.0476V57.1572C35.4698 57.4417 35.8814 57.7437 36.2825 58.0586C37.8579 59.2958 41.5531 61.9532 44.1465 61.8845Z" fill="#8E7237"/>
<path d="M44.1465 58.419C44.1465 58.419 48.3991 59.0907 52.7345 55.1715C53.4085 54.5628 54.1257 54.0055 54.8731 53.4912C54.9466 53.4399 55.0189 53.3874 55.0935 53.3373C57.0128 52.0476 60.7011 48.4736 61.4824 39.7515V28.1946C61.4824 28.1946 61.0381 24.1052 56.6817 22.5054L50.2077 20.2327C49.0008 19.8094 47.6831 19.8257 46.4868 20.2793C45.1458 20.7889 43.3745 21.4477 42.2598 21.8045C41.7257 21.976 41.1683 22.0611 40.6074 22.0611H34.4565C34.4565 22.0611 29.6558 22.6838 28.4559 28.0605V37.7703V40.0173C28.4559 40.0173 28.6646 49.4625 34.9182 53.602C34.9625 53.6312 35.0033 53.6626 35.0476 53.6918C35.4698 53.9763 35.8814 54.2783 36.2825 54.5931C37.8579 55.8303 41.5531 58.4878 44.1465 58.419Z" fill="#FCD462"/>
<path fill-rule="evenodd" clip-rule="evenodd" d="M11.1467 70.0136L29.1498 63.533C34.7731 69.4795 49.3982 75.8769 60.7719 63.533L78.775 70.0136C81.6643 71.0532 83.7638 73.5643 84.2657 76.5796L86.1269 84.5685C86.5127 86.8895 84.7131 89 82.3488 89H7.57296C5.20858 89 3.40901 86.8895 3.79481 84.5685L5.65607 76.5796C6.15797 73.5643 8.25748 71.0532 11.1467 70.0136Z" fill="#424242"/>
<path d="M34.915 61.4466L29.1498 63.533C34.7731 69.4795 49.3982 75.8769 60.7719 63.533L54.8701 61.4466C48.0975 68.1847 38.7448 64.2541 34.915 61.4466Z" fill="#242424"/>
<path d="M35.6404 30.5169C37.8505 23.2637 43.775 21.3813 46.6136 20.1744L34.4428 21.9933C33.6694 27.9376 33.4303 37.7702 35.6404 30.5169Z" fill="#584C39"/>
<path d="M37.695 31.0872C40.2088 22.816 46.9284 20.6637 50.1484 19.2847L36.3463 21.3714C35.463 28.1489 35.1812 39.3584 37.695 31.0872Z" fill="#574932" fill-opacity="0.45"/>
<path d="M50.4339 85.7162H49.2679V89.8924H48.1018V91.6822H46.9357V92.8753H45.7697V97.6481H46.9357V98.8413H44.6036V95.2617H43.4375V94.0685H42.2715V95.2617H41.1054V96.4549H39.9393V97.6481H41.1054V98.8413H38.7733V94.0685H37.6072V92.8753H36.4411V91.6822H35.2751V90.489H34.109V89.2958H32.9429V82.1367H34.109V84.5231H35.2751V85.7162H36.4411V86.9094H38.7733V85.7162H39.9393V84.5231H41.6884V83.3299H43.4375V82.1367H44.6036V74.381H45.7697V73.1878H55.0982V74.381H56.2642V79.7503H50.4339V80.9435H53.9321V82.1367H49.2679V84.5231H51.6V86.9094H50.4339V85.7162ZM46.9357 74.9776V76.1708H48.1018V74.9776H46.9357Z" fill="url(#paint0_radial_209_70)"/>
<g filter="url(#filter1_d_209_70)">
<path d="M61.3233 44.8891C61.3233 44.3368 61.771 43.8891 62.3233 43.8891C62.8756 43.8891 63.3233 44.3368 63.3233 44.8891V46.8891C63.3233 47.4414 62.8756 47.8891 62.3233 47.8891C61.771 47.8891 61.3233 47.4414 61.3233 46.8891V44.8891Z" fill="#DEDEDE"/>
<path d="M61.8233 49.1234C61.8233 48.8473 62.0472 48.6234 62.3233 48.6234V48.6234C62.5994 48.6234 62.8233 48.8473 62.8233 49.1234V54.1234C62.8233 54.3996 62.5994 54.6234 62.3233 54.6234V54.6234C62.0472 54.6234 61.8233 54.3996 61.8233 54.1234V49.1234Z" fill="#DEDEDE"/>
<path d="M61.1346 51.1138C60.8585 51.1138 60.6346 50.8899 60.6346 50.6138V50.6138C60.6346 50.3376 60.8585 50.1138 61.1346 50.1138H63.512C63.7881 50.1138 64.012 50.3376 64.012 50.6138V50.6138C64.012 50.8899 63.7881 51.1138 63.512 51.1138H61.1346Z" fill="#DEDEDE"/>
</g>
</g>
<defs>
<filter id="filter0_i_209_70" x="0" y="0" width="89" height="89" filterUnits="userSpaceOnUse" color-interpolation-filters="sRGB">
<feFlood flood-opacity="0" result="BackgroundImageFix"/>
<feBlend mode="normal" in="SourceGraphic" in2="BackgroundImageFix" result="shape"/>
<feColorMatrix in="SourceAlpha" type="matrix" values="0 0 0 0 0 0 0 0 0 0 0 0 0 0 0 0 0 0 127 0" result="hardAlpha"/>
<feOffset dy="-22"/>
<feComposite in2="hardAlpha" operator="arithmetic" k2="-1" k3="1"/>
<feColorMatrix type="matrix" values="0 0 0 0 0 0 0 0 0 0.533333 0 0 0 0 0.313535 0 0 0 1 0"/>
<feBlend mode="normal" in2="shape" result="effect1_innerShadow_209_70"/>
</filter>
<filter id="filter1_d_209_70" x="60.1346" y="43.8891" width="3.87732" height="11.7343" filterUnits="userSpaceOnUse" color-interpolation-filters="sRGB">
<feFlood flood-opacity="0" result="BackgroundImageFix"/>
<feColorMatrix in="SourceAlpha" type="matrix" values="0 0 0 0 0 0 0 0 0 0 0 0 0 0 0 0 0 0 127 0" result="hardAlpha"/>
<feOffset dx="-0.5" dy="1"/>
<feComposite in2="hardAlpha" operator="out"/>
<feColorMatrix type="matrix" values="0 0 0 0 0 0 0 0 0 0 0 0 0 0 0 0 0 0 0.31 0"/>
<feBlend mode="normal" in2="BackgroundImageFix" result="effect1_dropShadow_209_70"/>
<feBlend mode="normal" in="SourceGraphic" in2="effect1_dropShadow_209_70" result="shape"/>
</filter>
<radialGradient id="paint0_radial_209_70" cx="0" cy="0" r="1" gradientUnits="userSpaceOnUse" gradientTransform="translate(47.0138 73.1878) rotate(90) scale(20.7898)">
<stop stop-color="white"/>
<stop offset="1" stop-color="#626262"/>
</radialGradient>
<clipPath id="clip0_209_70">
<rect width="89" height="89" rx="44.5" fill="white"/>
</clipPath>
</defs>
</svg>
