<svg width="64" height="64" viewBox="0 0 64 64" fill="none" xmlns="http://www.w3.org/2000/svg">
<path d="M2.14814 15.1852V31.2593H5.59259V34.7037H9.03703V42.7408H15.9259V49.6297H21.6667H22.8148V42.7408H41.1852V49.6297H48.0741V42.7408H54.963V34.7037H58.4074V31.2593H61.8518V14.0371H54.963V18.6297V19.7778H46.9259V14.0371H42.3333V7.14819H35.4444V14.0371H27.4074V7.14819H20.5185V14.0371H15.9259V19.7778H9.03703V14.0371H2.14814V15.1852Z" fill="#8967AA"/>
<path d="M15.9259 49.6297H9.03703V56.5186H15.9259V49.6297Z" fill="#8967AA"/>
<path d="M54.963 49.6297H48.0741V56.5186H54.963V49.6297Z" fill="#8967AA"/>
<path d="M23.7046 26.6667H19.5713V33.5555H23.7046V26.6667Z" fill="#453257"/>
<path fill-rule="evenodd" clip-rule="evenodd" d="M18.4231 26.6667C18.4231 26.0326 18.9372 25.5185 19.5713 25.5185H23.7046C24.3387 25.5185 24.8528 26.0326 24.8528 26.6667V33.5556C24.8528 34.1897 24.3387 34.7037 23.7046 34.7037H19.5713C18.9372 34.7037 18.4231 34.1897 18.4231 33.5556V26.6667ZM20.7194 27.8148V32.4074H22.5565V27.8148H20.7194Z" fill="#453257"/>
<path fill-rule="evenodd" clip-rule="evenodd" d="M9.03704 34.7037C9.67115 34.7037 10.1852 35.2177 10.1852 35.8519V41.5926H15.9259C16.56 41.5926 17.0741 42.1066 17.0741 42.7407C17.0741 43.3748 16.56 43.8889 15.9259 43.8889H9.03704C8.40294 43.8889 7.88889 43.3748 7.88889 42.7407V35.8519C7.88889 35.2177 8.40294 34.7037 9.03704 34.7037Z" fill="#453257"/>
<path fill-rule="evenodd" clip-rule="evenodd" d="M15.4472 14.0371C15.4472 13.403 15.9612 12.8889 16.5953 12.8889H20.5185C21.1526 12.8889 21.6667 13.403 21.6667 14.0371C21.6667 14.6712 21.1526 15.1852 20.5185 15.1852H17.7434V19.7778C17.7434 20.4119 17.2294 20.926 16.5953 20.926C15.9612 20.926 15.4472 20.4119 15.4472 19.7778V14.0371Z" fill="#453257"/>
<path fill-rule="evenodd" clip-rule="evenodd" d="M41.5204 14.0371C41.5204 13.403 42.0345 12.8889 42.6686 12.8889H46.5907C47.2248 12.8889 47.7388 13.403 47.7388 14.0371V19.7778C47.7388 20.4119 47.2248 20.926 46.5907 20.926C45.9566 20.926 45.4425 20.4119 45.4425 19.7778V15.1852H42.6686C42.0345 15.1852 41.5204 14.6712 41.5204 14.0371Z" fill="#453257"/>
<path fill-rule="evenodd" clip-rule="evenodd" d="M1 14.0371C1 13.403 1.51404 12.8889 2.14815 12.8889H9.03704C9.67114 12.8889 10.1852 13.403 10.1852 14.0371V31.2593C10.1852 31.8934 9.67114 32.4074 9.03704 32.4074C8.40293 32.4074 7.88889 31.8934 7.88889 31.2593V15.1852H3.2963V30.1111H5.59259C6.2267 30.1111 6.74074 30.6252 6.74074 31.2593C6.74074 31.8934 6.2267 32.4074 5.59259 32.4074H2.14815C1.51404 32.4074 1 31.8934 1 31.2593V14.0371Z" fill="#453257"/>
<path fill-rule="evenodd" clip-rule="evenodd" d="M53.8148 14.0371C53.8148 13.403 54.3289 12.8889 54.963 12.8889H61.8518C62.486 12.8889 63 13.403 63 14.0371V31.2593C63 31.8934 62.486 32.4074 61.8518 32.4074H58.4074C57.7733 32.4074 57.2593 31.8934 57.2593 31.2593C57.2593 30.6252 57.7733 30.1111 58.4074 30.1111H60.7037V15.1852H56.1111V31.2593C56.1111 31.8934 55.5971 32.4074 54.963 32.4074C54.3289 32.4074 53.8148 31.8934 53.8148 31.2593V14.0371Z" fill="#453257"/>
<path fill-rule="evenodd" clip-rule="evenodd" d="M19.3704 7.14815C19.3704 6.51404 19.8844 6 20.5185 6H27.4074C28.0415 6 28.5556 6.51404 28.5556 7.14815V14.037C28.5556 14.6711 28.0415 15.1852 27.4074 15.1852C26.7733 15.1852 26.2593 14.6711 26.2593 14.037V8.2963H21.6667V14.037C21.6667 14.6711 21.1526 15.1852 20.5185 15.1852C19.8844 15.1852 19.3704 14.6711 19.3704 14.037V7.14815Z" fill="#453257"/>
<path fill-rule="evenodd" clip-rule="evenodd" d="M34.2963 7.14815C34.2963 6.51404 34.8103 6 35.4444 6H42.3333C42.9674 6 43.4815 6.51404 43.4815 7.14815V14.037C43.4815 14.6711 42.9674 15.1852 42.3333 15.1852C41.6992 15.1852 41.1852 14.6711 41.1852 14.037V8.2963H36.5926V14.037C36.5926 14.6711 36.0785 15.1852 35.4444 15.1852C34.8103 15.1852 34.2963 14.6711 34.2963 14.037V7.14815Z" fill="#453257"/>
<path fill-rule="evenodd" clip-rule="evenodd" d="M5.59259 30.1111C6.2267 30.1111 6.74074 30.6251 6.74074 31.2592V33.5555H11.3333V32.4074H9.03704C8.40293 32.4074 7.88889 31.8933 7.88889 31.2592C7.88889 30.6251 8.40293 30.1111 9.03704 30.1111H12.4815C13.1156 30.1111 13.6296 30.6251 13.6296 31.2592V34.7037C13.6296 35.3378 13.1156 35.8518 12.4815 35.8518H5.59259C4.95849 35.8518 4.44444 35.3378 4.44444 34.7037V31.2592C4.44444 30.6251 4.95849 30.1111 5.59259 30.1111Z" fill="#453257"/>
<path fill-rule="evenodd" clip-rule="evenodd" d="M50.3704 31.2592C50.3704 30.6251 50.8844 30.1111 51.5185 30.1111H54.963C55.5971 30.1111 56.1111 30.6251 56.1111 31.2592C56.1111 31.8933 55.5971 32.4074 54.963 32.4074H52.6667V33.5555H57.2593V31.2592C57.2593 30.6251 57.7733 30.1111 58.4074 30.1111C59.0415 30.1111 59.5556 30.6251 59.5556 31.2592V34.7037C59.5556 35.3378 59.0415 35.8518 58.4074 35.8518H51.5185C50.8844 35.8518 50.3704 35.3378 50.3704 34.7037V31.2592Z" fill="#453257"/>
<path fill-rule="evenodd" clip-rule="evenodd" d="M7.88889 49.6296C7.88889 48.9955 8.40294 48.4815 9.03704 48.4815H15.9259C16.56 48.4815 17.0741 48.9955 17.0741 49.6296V56.5185C17.0741 57.1526 16.56 57.6667 15.9259 57.6667H9.03704C8.40294 57.6667 7.88889 57.1526 7.88889 56.5185V49.6296ZM10.1852 50.7778V55.3704H14.7778V50.7778H10.1852Z" fill="#453257"/>
<path fill-rule="evenodd" clip-rule="evenodd" d="M46.9259 49.6296C46.9259 48.9955 47.44 48.4815 48.0741 48.4815H54.963C55.5971 48.4815 56.1111 48.9955 56.1111 49.6296V56.5185C56.1111 57.1526 55.5971 57.6667 54.963 57.6667H48.0741C47.44 57.6667 46.9259 57.1526 46.9259 56.5185V49.6296ZM49.2222 50.7778V55.3704H53.8148V50.7778H49.2222Z" fill="#453257"/>
<path fill-rule="evenodd" clip-rule="evenodd" d="M15.9259 41.5926C16.56 41.5926 17.0741 42.1066 17.0741 42.7407V48.4815H21.6667V42.7407C21.6667 42.1066 22.1807 41.5926 22.8148 41.5926C23.4489 41.5926 23.963 42.1066 23.963 42.7407V49.6296C23.963 50.2637 23.4489 50.7778 22.8148 50.7778H15.9259C15.2918 50.7778 14.7778 50.2637 14.7778 49.6296V42.7407C14.7778 42.1066 15.2918 41.5926 15.9259 41.5926Z" fill="#453257"/>
<path fill-rule="evenodd" clip-rule="evenodd" d="M54.963 34.7037C55.5971 34.7037 56.1111 35.2177 56.1111 35.8519V42.7407C56.1111 43.3748 55.5971 43.8889 54.963 43.8889H48.0741C47.44 43.8889 46.9259 43.3748 46.9259 42.7407C46.9259 42.1066 47.44 41.5926 48.0741 41.5926H53.8148V35.8519C53.8148 35.2177 54.3289 34.7037 54.963 34.7037Z" fill="#453257"/>
<path fill-rule="evenodd" clip-rule="evenodd" d="M41.1852 41.5926C41.8193 41.5926 42.3333 42.1066 42.3333 42.7407V48.4815H46.9259V42.7407C46.9259 42.1066 47.44 41.5926 48.0741 41.5926C48.7082 41.5926 49.2222 42.1066 49.2222 42.7407V49.6296C49.2222 50.2637 48.7082 50.7778 48.0741 50.7778H41.1852C40.5511 50.7778 40.037 50.2637 40.037 49.6296V42.7407C40.037 42.1066 40.5511 41.5926 41.1852 41.5926Z" fill="#453257"/>
<path d="M44.6583 26.6667H40.525V33.5555H44.6583V26.6667Z" fill="#453257"/>
<path fill-rule="evenodd" clip-rule="evenodd" d="M39.3769 26.6667C39.3769 26.0326 39.8909 25.5185 40.525 25.5185H44.6583C45.2924 25.5185 45.8065 26.0326 45.8065 26.6667V33.5556C45.8065 34.1897 45.2924 34.7037 44.6583 34.7037H40.525C39.8909 34.7037 39.3769 34.1897 39.3769 33.5556V26.6667ZM41.6732 27.8148V32.4074H43.5102V27.8148H41.6732Z" fill="#453257"/>
<path fill-rule="evenodd" clip-rule="evenodd" d="M21.6667 42.7407C21.6667 42.1066 22.1807 41.5926 22.8148 41.5926H41.1852C41.8193 41.5926 42.3333 42.1066 42.3333 42.7407C42.3333 43.3748 41.8193 43.8889 41.1852 43.8889H22.8148C22.1807 43.8889 21.6667 43.3748 21.6667 42.7407Z" fill="#453257"/>
<path fill-rule="evenodd" clip-rule="evenodd" d="M26.2593 14.0371C26.2593 13.403 26.7733 12.8889 27.4074 12.8889H35.4444C36.0786 12.8889 36.5926 13.403 36.5926 14.0371C36.5926 14.6712 36.0786 15.1852 35.4444 15.1852H27.4074C26.7733 15.1852 26.2593 14.6712 26.2593 14.0371Z" fill="#453257"/>
<path fill-rule="evenodd" clip-rule="evenodd" d="M7.88889 19.7778C7.88889 19.1437 8.40294 18.6296 9.03704 18.6296H15.9259C16.56 18.6296 17.0741 19.1437 17.0741 19.7778C17.0741 20.4119 16.56 20.9259 15.9259 20.9259H9.03704C8.40294 20.9259 7.88889 20.4119 7.88889 19.7778Z" fill="#453257"/>
<path fill-rule="evenodd" clip-rule="evenodd" d="M45.7778 19.7778C45.7778 19.1437 46.2918 18.6296 46.9259 18.6296H54.963C55.5971 18.6296 56.1111 19.1437 56.1111 19.7778C56.1111 20.4119 55.5971 20.9259 54.963 20.9259H46.9259C46.2918 20.9259 45.7778 20.4119 45.7778 19.7778Z" fill="#453257"/>
</svg>
