<svg width="120" height="120" viewBox="0 0 120 120" fill="none" xmlns="http://www.w3.org/2000/svg">
<path d="M54.3021 111.695L60 115L65.6978 111.695L60 61.3174L54.3021 111.695Z" fill="url(#paint0_linear_63_60)" fill-opacity="0.53"/>
<path d="M81.3669 102.607L60 61.3174L73.5324 107.151L81.3669 102.607Z" fill="url(#paint1_linear_63_60)" fill-opacity="0.53"/>
<path d="M98.4605 92.6923L60 61.3174L90.346 97.3988L98.4605 92.6923Z" fill="url(#paint2_linear_63_60)" fill-opacity="0.53"/>
<path d="M60 61.3174L38.633 102.607L46.4676 107.151L60 61.3174Z" fill="url(#paint3_linear_63_60)" fill-opacity="0.53"/>
<path d="M60 61.3174L21.5395 92.6923L29.654 97.3988L60 61.3174Z" fill="url(#paint4_linear_63_60)" fill-opacity="0.53"/>
<path d="M13 56.1891V66.4458L60 61.3174L13 56.1891Z" fill="url(#paint5_linear_63_60)" fill-opacity="0.53"/>
<path d="M13 77.4344L13 87.7392L13.705 88.1481L60 61.3174L13 77.4344Z" fill="url(#paint6_linear_63_60)" fill-opacity="0.53"/>
<path d="M107 56.1891L60 61.3174L107 66.4458V56.1891Z" fill="url(#paint7_linear_63_60)" fill-opacity="0.53"/>
<path d="M60 61.3174L107 45.1999V34.0782L60 61.3174Z" fill="url(#paint8_linear_63_60)" fill-opacity="0.53"/>
<path d="M60 6L54.0692 9.43998L60 61.3174L65.9308 9.43998L60 6Z" fill="url(#paint9_linear_63_60)" fill-opacity="0.53"/>
<path d="M46.0922 14.0667L37.8226 18.8633L60 61.3174L46.0922 14.0667Z" fill="url(#paint10_linear_63_60)" fill-opacity="0.53"/>
<path d="M29.0859 23.9307L20.2308 29.0668L60 61.3174L29.0859 23.9307Z" fill="url(#paint11_linear_63_60)" fill-opacity="0.53"/>
<path d="M13 34.0555L13 46.0708L60 61.3174L13 34.0555Z" fill="url(#paint12_linear_63_60)" fill-opacity="0.53"/>
<path d="M60 61.3174L82.1774 18.8633L73.9078 14.0667L60 61.3174Z" fill="url(#paint13_linear_63_60)" fill-opacity="0.53"/>
<path d="M60 61.3174L99.7692 29.0668L90.9733 23.965L60 61.3174Z" fill="url(#paint14_linear_63_60)" fill-opacity="0.53"/>
<path d="M107 77.4344L60 61.3174L106.295 88.1481L107 87.7392V77.4344Z" fill="url(#paint15_linear_63_60)" fill-opacity="0.53"/>
<defs>
<linearGradient id="paint0_linear_63_60" x1="60" y1="6" x2="60" y2="115" gradientUnits="userSpaceOnUse">
<stop stop-color="#487DB6"/>
<stop offset="0.514894" stop-color="#6C98C6"/>
<stop offset="0.778889" stop-color="#8AABD1"/>
<stop offset="1" stop-color="#6998C9"/>
</linearGradient>
<linearGradient id="paint1_linear_63_60" x1="60" y1="6" x2="60" y2="115" gradientUnits="userSpaceOnUse">
<stop stop-color="#487DB6"/>
<stop offset="0.514894" stop-color="#6C98C6"/>
<stop offset="0.778889" stop-color="#8AABD1"/>
<stop offset="1" stop-color="#6998C9"/>
</linearGradient>
<linearGradient id="paint2_linear_63_60" x1="60" y1="6" x2="60" y2="115" gradientUnits="userSpaceOnUse">
<stop stop-color="#487DB6"/>
<stop offset="0.514894" stop-color="#6C98C6"/>
<stop offset="0.778889" stop-color="#8AABD1"/>
<stop offset="1" stop-color="#6998C9"/>
</linearGradient>
<linearGradient id="paint3_linear_63_60" x1="60" y1="6" x2="60" y2="115" gradientUnits="userSpaceOnUse">
<stop stop-color="#487DB6"/>
<stop offset="0.514894" stop-color="#6C98C6"/>
<stop offset="0.778889" stop-color="#8AABD1"/>
<stop offset="1" stop-color="#6998C9"/>
</linearGradient>
<linearGradient id="paint4_linear_63_60" x1="60" y1="6" x2="60" y2="115" gradientUnits="userSpaceOnUse">
<stop stop-color="#487DB6"/>
<stop offset="0.514894" stop-color="#6C98C6"/>
<stop offset="0.778889" stop-color="#8AABD1"/>
<stop offset="1" stop-color="#6998C9"/>
</linearGradient>
<linearGradient id="paint5_linear_63_60" x1="60" y1="6" x2="60" y2="115" gradientUnits="userSpaceOnUse">
<stop stop-color="#487DB6"/>
<stop offset="0.514894" stop-color="#6C98C6"/>
<stop offset="0.778889" stop-color="#8AABD1"/>
<stop offset="1" stop-color="#6998C9"/>
</linearGradient>
<linearGradient id="paint6_linear_63_60" x1="60" y1="6" x2="60" y2="115" gradientUnits="userSpaceOnUse">
<stop stop-color="#487DB6"/>
<stop offset="0.514894" stop-color="#6C98C6"/>
<stop offset="0.778889" stop-color="#8AABD1"/>
<stop offset="1" stop-color="#6998C9"/>
</linearGradient>
<linearGradient id="paint7_linear_63_60" x1="60" y1="6" x2="60" y2="115" gradientUnits="userSpaceOnUse">
<stop stop-color="#487DB6"/>
<stop offset="0.514894" stop-color="#6C98C6"/>
<stop offset="0.778889" stop-color="#8AABD1"/>
<stop offset="1" stop-color="#6998C9"/>
</linearGradient>
<linearGradient id="paint8_linear_63_60" x1="60" y1="6" x2="60" y2="115" gradientUnits="userSpaceOnUse">
<stop stop-color="#487DB6"/>
<stop offset="0.514894" stop-color="#6C98C6"/>
<stop offset="0.778889" stop-color="#8AABD1"/>
<stop offset="1" stop-color="#6998C9"/>
</linearGradient>
<linearGradient id="paint9_linear_63_60" x1="60" y1="6" x2="60" y2="115" gradientUnits="userSpaceOnUse">
<stop stop-color="#487DB6"/>
<stop offset="0.514894" stop-color="#6C98C6"/>
<stop offset="0.778889" stop-color="#8AABD1"/>
<stop offset="1" stop-color="#6998C9"/>
</linearGradient>
<linearGradient id="paint10_linear_63_60" x1="60" y1="6" x2="60" y2="115" gradientUnits="userSpaceOnUse">
<stop stop-color="#487DB6"/>
<stop offset="0.514894" stop-color="#6C98C6"/>
<stop offset="0.778889" stop-color="#8AABD1"/>
<stop offset="1" stop-color="#6998C9"/>
</linearGradient>
<linearGradient id="paint11_linear_63_60" x1="60" y1="6" x2="60" y2="115" gradientUnits="userSpaceOnUse">
<stop stop-color="#487DB6"/>
<stop offset="0.514894" stop-color="#6C98C6"/>
<stop offset="0.778889" stop-color="#8AABD1"/>
<stop offset="1" stop-color="#6998C9"/>
</linearGradient>
<linearGradient id="paint12_linear_63_60" x1="60" y1="6" x2="60" y2="115" gradientUnits="userSpaceOnUse">
<stop stop-color="#487DB6"/>
<stop offset="0.514894" stop-color="#6C98C6"/>
<stop offset="0.778889" stop-color="#8AABD1"/>
<stop offset="1" stop-color="#6998C9"/>
</linearGradient>
<linearGradient id="paint13_linear_63_60" x1="60" y1="6" x2="60" y2="115" gradientUnits="userSpaceOnUse">
<stop stop-color="#487DB6"/>
<stop offset="0.514894" stop-color="#6C98C6"/>
<stop offset="0.778889" stop-color="#8AABD1"/>
<stop offset="1" stop-color="#6998C9"/>
</linearGradient>
<linearGradient id="paint14_linear_63_60" x1="60" y1="6" x2="60" y2="115" gradientUnits="userSpaceOnUse">
<stop stop-color="#487DB6"/>
<stop offset="0.514894" stop-color="#6C98C6"/>
<stop offset="0.778889" stop-color="#8AABD1"/>
<stop offset="1" stop-color="#6998C9"/>
</linearGradient>
<linearGradient id="paint15_linear_63_60" x1="60" y1="6" x2="60" y2="115" gradientUnits="userSpaceOnUse">
<stop stop-color="#487DB6"/>
<stop offset="0.514894" stop-color="#6C98C6"/>
<stop offset="0.778889" stop-color="#8AABD1"/>
<stop offset="1" stop-color="#6998C9"/>
</linearGradient>
</defs>
</svg>
