<svg width="60" height="60" viewBox="0 0 60 60" fill="none" xmlns="http://www.w3.org/2000/svg">
<path d="M38.3905 36.2655L37.2517 37.3975C37.2517 37.3975 34.5452 40.0887 27.1577 32.743C19.7703 25.3975 22.4767 22.7064 22.4767 22.7064L23.1937 21.9934C24.9602 20.2371 25.1267 17.4173 23.5855 15.3587L20.4331 11.1477C18.5257 8.59979 14.8399 8.26322 12.6536 10.4371L8.72962 14.3388C7.64557 15.4167 6.91912 16.814 7.00722 18.364C7.2326 22.3295 9.02677 30.8617 19.0384 40.8165C29.6552 51.373 39.617 51.7925 43.6907 51.4127C44.9792 51.2927 46.0997 50.6365 47.0027 49.7385L50.5542 46.2075C52.9515 43.8237 52.2755 39.7372 49.2082 38.07L44.432 35.4735C42.418 34.3787 39.9645 34.7002 38.3905 36.2655Z" fill="url(#paint0_linear_9_3)"/>
<path fill-rule="evenodd" clip-rule="evenodd" d="M39.0956 36.9746L39.0955 36.9747L37.9567 38.1067L37.447 37.5939C37.9567 38.1068 37.9558 38.1076 37.9549 38.1085L37.9529 38.1105L37.9487 38.1146L37.9393 38.1236C37.9327 38.1299 37.9253 38.1369 37.917 38.1444C37.9005 38.1594 37.8807 38.1768 37.8575 38.196C37.8112 38.2343 37.7514 38.2801 37.6776 38.3296C37.5295 38.4288 37.3258 38.5422 37.0625 38.6403C36.5291 38.839 35.7872 38.9612 34.8235 38.8133C32.921 38.5216 30.2124 37.1906 26.4527 33.4521C22.6936 29.7144 21.3529 27.0196 21.0588 25.1235C20.9097 24.1623 21.0328 23.4218 21.2335 22.8891C21.3325 22.6263 21.447 22.423 21.547 22.2755C21.5969 22.2018 21.643 22.1423 21.6817 22.0962C21.701 22.0731 21.7185 22.0534 21.7336 22.037C21.7412 22.0287 21.7482 22.0213 21.7545 22.0147L21.7636 22.0054L21.7677 22.0012L21.7697 21.9992C21.7707 21.9983 21.7716 21.9973 22.4441 22.6736L21.7716 21.9973L22.4886 21.2843L22.4887 21.2843C23.8845 19.8965 24.0423 17.6373 22.785 15.958L22.785 15.958L19.6326 11.747C19.6326 11.747 19.6326 11.747 19.6326 11.747C18.0669 9.65564 15.0879 9.42684 13.3587 11.1462L9.43471 15.0479C8.48892 15.9883 7.93827 17.1224 8.00561 18.3073L7.00722 18.364C6.91912 16.814 7.64557 15.4167 8.72962 14.3388L12.6536 10.4371C14.8399 8.26322 18.5257 8.59979 20.4331 11.1477L23.5855 15.3587C25.1267 17.4173 24.9602 20.2371 23.1937 21.9934L22.4767 22.7064C22.4767 22.7064 19.7703 25.3975 27.1577 32.743C34.5452 40.0887 37.2517 37.3975 37.2517 37.3975L38.3905 36.2655C39.9645 34.7002 42.418 34.3787 44.432 35.4735L49.2082 38.07C52.2755 39.7372 52.9515 43.8237 50.5542 46.2075L47.0027 49.7385C46.0997 50.6365 44.9792 51.2927 43.6907 51.4127C39.617 51.7925 29.6552 51.373 19.0384 40.8165C9.02677 30.8617 7.2326 22.3295 7.00722 18.364L8.00561 18.3073C8.21722 22.0307 9.90956 30.3293 19.7435 40.1074C30.1132 50.4182 39.7636 50.7745 43.5979 50.4171L43.598 50.417C44.5942 50.3243 45.5098 49.8129 46.2976 49.0294L46.2977 49.0293L49.8491 45.4984C49.8492 45.4984 49.8492 45.4984 49.8492 45.4983C51.7378 43.6203 51.2524 40.3193 48.7307 38.9486L48.7306 38.9486L43.9544 36.3521C43.9544 36.3521 43.9544 36.3521 43.9544 36.3521C42.3111 35.4588 40.3421 35.735 39.0956 36.9746Z" fill="#556069"/>
<path d="M27.1577 32.743C19.7703 25.3975 22.4767 22.7064 22.4767 22.7064L23.1937 21.9934C24.9602 20.2371 25.1267 17.4173 23.5855 15.3587L20.4331 11.1477C18.5257 8.59979 14.8399 8.26322 12.6536 10.4371L8.72962 14.3388C7.64557 15.4167 6.91912 16.814 7.00722 18.364C7.18312 21.4591 8.3147 27.336 13.5631 34.5H29.0497C28.4564 33.9902 27.8262 33.4077 27.1577 32.743Z" fill="url(#paint1_linear_9_3)"/>
<path fill-rule="evenodd" clip-rule="evenodd" d="M39.8005 37.6839L38.6617 38.8159L37.6422 37.7903C38.6616 38.8161 38.6599 38.8178 38.6581 38.8195L38.6542 38.8233L38.6461 38.8313L38.6289 38.8478C38.617 38.8592 38.6041 38.8712 38.5902 38.8838C38.5626 38.909 38.531 38.9366 38.4955 38.966C38.4246 39.0248 38.3377 39.091 38.2341 39.1604C38.0265 39.2995 37.7536 39.45 37.4116 39.5774C36.7139 39.8373 35.7994 39.9747 34.6719 39.8018C32.4671 39.4636 29.5733 37.9653 25.7475 34.1612C21.9232 30.3586 20.4121 27.4781 20.0706 25.2768C19.8958 24.1499 20.0346 23.2349 20.2977 22.5365C20.4266 22.1945 20.5788 21.9218 20.7191 21.7146C20.7891 21.6113 20.8559 21.5246 20.9152 21.4539C20.9448 21.4185 20.9726 21.3871 20.998 21.3595C21.0107 21.3458 21.0228 21.3329 21.0342 21.321L21.0509 21.3039L21.0589 21.2959L21.0627 21.292C21.0646 21.2901 21.0665 21.2883 22.3969 22.6261L21.0665 21.2882L21.7835 20.5753C22.8087 19.5559 22.9578 17.8574 21.9845 16.5574L18.8321 12.3463C18.8321 12.3463 18.8321 12.3463 18.8321 12.3463C17.6082 10.7115 15.3359 10.5905 14.0638 11.8553C14.0638 11.8553 14.0638 11.8553 14.0638 11.8553L10.1398 15.757C9.33228 16.56 8.95741 17.4309 9.004 18.2505C9.20185 21.7318 10.7923 29.7969 20.4486 39.3983C30.5712 49.4634 39.9102 49.7565 43.5051 49.4214C44.209 49.3558 44.9198 48.9893 45.5925 48.3204L49.144 44.7893C49.1441 44.7893 49.144 44.7893 49.144 44.7893C50.5241 43.4169 50.2294 40.9014 48.2531 39.8272L43.4768 37.2307C43.4768 37.2307 43.4769 37.2307 43.4768 37.2307C42.2042 36.5389 40.7195 36.77 39.8005 37.6839ZM44.432 35.4735L49.2082 38.07C52.2755 39.7372 52.9515 43.8237 50.5542 46.2075L47.0027 49.7385C46.0997 50.6365 44.9792 51.2927 43.6907 51.4127C39.617 51.7925 29.6552 51.373 19.0384 40.8165C9.02677 30.8617 7.2326 22.3295 7.00722 18.364C6.91912 16.814 7.64557 15.4167 8.72962 14.3388L12.6536 10.4371C14.8399 8.26322 18.5257 8.59979 20.4331 11.1477L23.5855 15.3587C25.1267 17.4173 24.9602 20.2371 23.1937 21.9934L22.4767 22.7064C22.4767 22.7064 19.7703 25.3975 27.1577 32.743C34.5452 40.0887 37.2517 37.3975 37.2517 37.3975L38.3905 36.2655C39.9645 34.7002 42.418 34.3787 44.432 35.4735Z" fill="#556069"/>
<defs>
<linearGradient id="paint0_linear_9_3" x1="24" y1="27.5" x2="29.5" y2="51.4999" gradientUnits="userSpaceOnUse">
<stop stop-color="#E3EBF0"/>
<stop offset="1" stop-color="#C8DAE5"/>
</linearGradient>
<linearGradient id="paint1_linear_9_3" x1="15.5" y1="9" x2="21" y2="35.5" gradientUnits="userSpaceOnUse">
<stop stop-color="white"/>
<stop offset="1" stop-color="#F6FBFF"/>
</linearGradient>
</defs>
</svg>
