<svg width="60" height="60" viewBox="0 0 60 60" fill="none" xmlns="http://www.w3.org/2000/svg">
<path d="M43.0397 16.8985L22.249 29.7035C21.0725 30.4298 20.5157 31.8643 20.8948 33.1911L23.1428 41.0899C23.3348 41.7634 23.9341 42.2111 24.6237 42.2111C24.6621 42.2111 24.7009 42.2097 24.7398 42.2068C25.477 42.1533 26.0603 41.6043 26.1584 40.8724L26.7429 36.5413C26.8217 35.9586 27.1025 35.4165 27.5329 35.0158L44.6896 19.0677C45.2081 18.5869 45.2766 17.7997 44.8494 17.2366C44.4215 16.6731 43.6439 16.5273 43.0397 16.8985ZM26.161 33.5412C25.3901 34.2588 24.8878 35.2285 24.7468 36.2717L24.4634 38.3726L22.8316 32.6389C22.699 32.1744 22.8943 31.6722 23.306 31.418L38.5367 22.0375L26.161 33.5412Z" fill="#556069"/>
<path fill-rule="evenodd" clip-rule="evenodd" d="M45.2948 50.0123L53.5321 10.3889C53.5647 10.2317 53.4808 10.133 53.4281 10.0881L44.8494 17.2366C45.2766 17.7997 45.2081 18.5869 44.6896 19.0677L27.5328 35.0158C27.1025 35.4165 26.8217 35.9586 26.7429 36.5413L26.1584 40.8724C26.0603 41.6043 25.477 42.1533 24.7398 42.2068C24.7009 42.2097 24.6621 42.2111 24.6237 42.2111L23.3396 47.067C23.3825 47.2048 23.4878 47.2552 23.5469 47.2729C23.6055 47.2906 23.7208 47.3068 23.8317 47.216L30.0673 42.1326C30.5926 41.7047 31.2352 41.4889 31.8788 41.4889C32.4687 41.4889 33.0598 41.6701 33.5624 42.035L44.8071 50.199C44.9268 50.2861 45.0438 50.2607 45.103 50.2378C45.1619 50.215 45.2649 50.1554 45.2948 50.0123Z" fill="url(#paint0_linear_9_30)"/>
<path d="M19.0106 33.1447L23.3396 47.067L24.6237 42.2111C23.9341 42.2111 23.3348 41.7634 23.1428 41.0899L20.8948 33.1911C20.5157 31.8643 21.0725 30.4298 22.249 29.7035L43.0396 16.8985C43.6439 16.5273 44.4214 16.6731 44.8494 17.2366L53.4281 10.0881C53.3756 10.0437 53.2653 9.9775 53.1162 10.0351L53.1154 10.0354L7.21397 27.7427C7.0481 27.8067 7.01374 27.9367 7.01423 28.0344C7.01472 28.1331 7.05037 28.2637 7.21782 28.3264L18.4011 32.5002C18.693 32.6092 18.9181 32.8472 19.0106 33.1447Z" fill="url(#paint1_linear_9_30)"/>
<path d="M54.7301 8.55166C54.0805 8.00111 53.1842 7.84955 52.3903 8.15623L6.48896 25.8636C5.5799 26.2142 4.99539 27.0702 5.00003 28.0442C5.00477 29.0191 5.59787 29.8703 6.51226 30.2129L17.2339 34.2146L21.4163 47.6648C21.6459 48.4043 22.2256 48.9788 22.9667 49.2017C23.7074 49.4245 24.5074 49.2652 25.1053 48.7762L31.3395 43.694C31.6389 43.4499 32.0664 43.4379 32.379 43.6649L43.6233 51.8284C44.0278 52.1224 44.5052 52.2738 44.9881 52.2738C45.271 52.2738 45.5557 52.2219 45.829 52.1162C46.5682 51.8304 47.1057 51.1968 47.2666 50.4216L55.504 10.7982C55.677 9.96387 55.3805 9.1031 54.7301 8.55166ZM53.5321 10.3889L45.2948 50.0123C45.2649 50.1554 45.1619 50.215 45.103 50.2378C45.0438 50.2607 44.9268 50.2861 44.8071 50.199L33.5624 42.035C33.0598 41.6701 32.4687 41.4889 31.8788 41.4889C31.2352 41.4889 30.5926 41.7047 30.0673 42.1326L23.8317 47.216C23.7208 47.3068 23.6055 47.2906 23.5469 47.2729C23.4878 47.2552 23.3825 47.2048 23.3396 47.067L19.0106 33.1447C18.9181 32.8472 18.693 32.6092 18.4011 32.5002L7.21782 28.3264C7.05037 28.2637 7.01472 28.1331 7.01423 28.0344C7.01374 27.9367 7.0481 27.8067 7.21397 27.7427L53.1154 10.0354C53.1156 10.0353 53.1159 10.0352 53.1162 10.0351C53.2653 9.9775 53.3756 10.0437 53.4281 10.0881C53.4808 10.133 53.5647 10.2317 53.5321 10.3889Z" fill="#556069"/>
<defs>
<linearGradient id="paint0_linear_9_30" x1="44.5996" y1="17.4989" x2="44.1783" y2="49.0942" gradientUnits="userSpaceOnUse">
<stop stop-color="#DCE6ED"/>
<stop offset="1" stop-color="#CCDDE7"/>
</linearGradient>
<linearGradient id="paint1_linear_9_30" x1="30.2763" y1="8" x2="30.2763" y2="52.2738" gradientUnits="userSpaceOnUse">
<stop stop-color="#F7FBFF"/>
<stop offset="1" stop-color="#FEFEFF"/>
</linearGradient>
</defs>
</svg>
