<svg width="64" height="64" viewBox="0 0 64 64" fill="none" xmlns="http://www.w3.org/2000/svg">
<path d="M38.92 14.515C38.9744 14.4545 39.0303 14.3929 39.0874 14.3305M41.75 11.355C41.7833 11.5595 40.2015 13.1122 39.0874 14.3305M18.27 11.825C17.465 12.155 18.69 13.38 19.615 14.86C19.6914 14.9827 19.7619 15.0995 19.8281 15.2112C19.2272 15.3128 18.5998 15.4361 17.945 15.585C12.825 16.75 5.055 21.255 2.53 30.965C1.2 36.08 1.705 41.605 3.97 46.26C6.19797 50.8338 9.40312 53.6355 12 55.2806L12.162 55.3822C12.162 55.3822 22.78 63.105 41.015 59.54C51.345 57.52 60.275 48.28 61.83 38.495C63.285 29.34 57.935 23.205 57.935 23.205L57.8812 23.1351C55.5489 19.9149 50.8776 15.5196 42.875 14.575C41.5059 14.4142 40.2515 14.3422 39.0874 14.3305M41.725 11.34C41.725 10.825 38.19 10.535 35.74 12.49C34.8796 13.1758 34.3798 13.9375 33.9543 14.6363C33.4849 14.6914 33.0283 14.7499 32.5814 14.8081C32.3981 13.4299 32.2971 11.8853 32.44 10.415C32.795 6.78001 34.12 4.27001 34.175 3.74501C34.205 3.46001 33.83 2.53001 32.56 2.47001C31.725 2.43001 30.67 3.09001 30.67 3.09001C30.67 3.09001 29.14 4.95501 28.535 9.58501C28.3164 11.256 28.4544 13.3751 28.4969 14.9783C27.8575 14.925 27.1323 14.8613 26.3109 14.8222C26.153 14.731 25.9909 14.6399 25.825 14.55C23.935 13.525 22.51 13.98 21.42 13.455C20.335 12.93 18.41 11.57 18.225 11.845" stroke="#720C19" stroke-width="3"/>
<path d="M59.885 34.69C59.885 34.69 60.74 28.165 59.185 25.215C57.63 22.265 52.83 15.75 42.875 14.575C37.595 13.955 34.02 14.655 30.76 15.04C28.695 15.285 24.85 14.015 17.945 15.585C12.825 16.75 5.055 21.255 2.53 30.965C1.2 36.08 1.705 41.605 3.97 46.26C8.32 55.19 16.395 57.365 16.395 57.365L32.625 58.685L52.275 50.375L59.885 34.69Z" fill="#FF2A23"/>
<path d="M41.015 59.54C51.345 57.52 60.275 48.28 61.83 38.495C63.285 29.34 57.935 23.205 57.935 23.205C57.935 23.205 58.545 28.09 57.405 33.295C56.18 38.865 52.635 48.15 41.405 53.41C27.62 59.865 12.52 55.61 12.52 55.61C12.52 55.61 22.78 63.105 41.015 59.54Z" fill="#DC0D27"/>
<path d="M12.46 26.38C9.715 25.67 6.29 27.745 5.795 33.82C5.34 39.385 8.355 46.09 11.31 45.29C13.82 44.61 11.405 39.96 12.3 36.145C13.205 32.33 16.645 27.465 12.46 26.38Z" fill="#FED3B0"/>
<path d="M15.935 23.025C15.545 23.53 16.45 25.75 21.045 25.72C25.635 25.69 26.405 24.305 28.45 24.925C30.495 25.545 32.09 28.005 34.35 29.35C37.51 31.23 42.07 30.75 42.04 29.915C42.01 29.075 40.895 29.505 39.935 28.33C38.975 27.15 37.275 24.035 37.275 24.035C37.275 24.035 37.75 22.575 38.755 22.63C41.075 22.755 43.655 22.295 45.075 21.405C46.775 20.345 47.415 18.71 47.105 18.335C46.795 17.965 45.83 18.965 45.305 18.87C44.78 18.775 41.365 18.84 41.365 18.84L37.24 18.17C37.24 18.17 37.805 15.755 38.92 14.515C40.035 13.275 41.785 11.57 41.75 11.355C41.715 11.14 40.31 11.33 40.31 11.33L35.965 13.315L32.925 17.315L27.155 18.06L21.6 14.335C21.6 14.335 18.415 11.765 18.27 11.825C17.465 12.155 18.69 13.38 19.615 14.86C20.415 16.145 20.58 16.79 21.66 17.685C22.715 18.555 24.485 19.42 24.485 19.42L23.215 21.715C23.215 21.715 19.12 23.33 18.405 23.33C17.695 23.335 16.15 22.75 15.935 23.025Z" fill="#BDCF44"/>
<path d="M28.755 21.64C30.43 21.765 31.64 23.99 33.15 25.505C35.355 27.71 37.08 28.86 38.935 29.295C39.865 29.51 42 29.865 42 29.865C42 29.865 42.31 29.65 41.255 29.06C40.2 28.47 39.565 27.34 39.41 26.815C39.255 26.29 38.77 24.565 37.75 23.135C36.73 21.705 35.57 21.1 35.94 20.45C36.31 19.8 39.51 20.9 42.59 20.405C46.655 19.755 47.275 18.45 47.09 18.295C46.905 18.14 44.39 18.885 43.12 18.605C41.85 18.325 40.76 17.455 38.84 17.455C37.53 17.455 36.25 17.93 35.905 17.215C35.615 16.615 36.705 14.61 37.535 13.855C39.55 12.025 41.725 11.59 41.725 11.34C41.725 10.825 38.19 10.535 35.74 12.49C33.3 14.435 33.76 16.99 30.59 16.99C29.535 16.99 29.13 16.74 29.13 16.74C29.13 16.74 27.715 15.575 25.825 14.55C23.935 13.525 22.51 13.98 21.42 13.455C20.335 12.93 18.41 11.57 18.225 11.845C18.04 12.12 19.67 13.98 21.72 15.5C23.77 17.02 26.065 17.795 25.41 18.415C24.76 19.035 23.675 19.44 22.65 20.215C21.625 20.99 20.725 22.105 19.485 22.51C18.245 22.915 16.205 22.63 15.925 22.97C15.645 23.31 18.085 24.485 21.9 23.775C25.705 23.065 25.715 21.415 28.755 21.64Z" fill="#94A61D"/>
<path d="M32.56 2.47001C31.725 2.43001 30.67 3.09001 30.67 3.09001C30.67 3.09001 29.14 4.95501 28.535 9.58501C28.255 11.725 28.56 14.6 28.5 16.185C28.44 17.765 28.095 18.355 28.19 19.165C28.285 19.97 29.13 20.88 31.085 20.86C32.655 20.845 33.465 19.63 33.435 19.195C33.405 18.76 32.06 14.325 32.44 10.415C32.795 6.78001 34.12 4.27001 34.175 3.74501C34.205 3.46001 33.83 2.53001 32.56 2.47001Z" fill="#728035"/>
</svg>
