<svg width="64" height="64" viewBox="0 0 64 64" fill="none" xmlns="http://www.w3.org/2000/svg">
<path fill-rule="evenodd" clip-rule="evenodd" d="M32.3248 4.15935L31.0825 5.00001L29.7973 4.22649L31.0085 2.21417L32.3248 4.15935ZM38.1131 19.441C38.1741 18.4986 38.0859 17.5351 37.9189 16.6098C37.5639 14.6421 36.8066 12.5975 35.9877 10.7832C35.1641 8.95833 34.251 7.30767 33.5471 6.11712C33.1942 5.52031 32.8917 5.03545 32.6762 4.69789C32.5683 4.52903 32.4821 4.39681 32.4221 4.30563C32.392 4.26004 32.3685 4.22468 32.3521 4.20013L32.3329 4.17144L32.3274 4.1633L32.3248 4.15935C32.3245 4.15903 32.3248 4.15935 31.0825 5.00001C29.7973 4.22649 29.7975 4.22621 29.7973 4.22649L29.7907 4.23744L29.7751 4.26368C29.7617 4.28618 29.7424 4.31864 29.7178 4.36057C29.6685 4.44441 29.5976 4.56618 29.5085 4.72196C29.3303 5.03343 29.0791 5.48154 28.7828 6.03507C28.1913 7.14008 27.4147 8.67514 26.6797 10.3882C25.9474 12.0954 25.241 14.0147 24.8073 15.8822C24.5676 16.914 24.3986 17.9814 24.3732 19.0179C22.8206 18.6814 21.3386 18.4566 20.1362 18.3082C19.2639 18.2005 18.5304 18.132 18.0126 18.0903C17.7536 18.0694 17.5482 18.0552 17.4058 18.0461C17.3347 18.0416 17.2793 18.0384 17.2408 18.0362L17.1959 18.0338L17.1833 18.0331L17.1782 18.0329C17.178 18.0328 17.1774 18.0328 17.104 19.531L17.1782 18.0329L14.8418 17.9184L15.7116 20.089L17.104 19.531C15.7116 20.089 15.7115 20.0888 15.7116 20.089L15.7143 20.0957L15.7204 20.1108L15.7426 20.1654C15.7619 20.2125 15.79 20.2805 15.8265 20.3678C15.8995 20.5422 16.0063 20.7935 16.1441 21.1068C16.4195 21.7331 16.8197 22.61 17.3214 23.6189C17.8911 24.7642 18.6007 26.0983 19.4166 27.4373C18.983 27.3827 18.5811 27.3374 18.2194 27.3C17.6118 27.2371 17.1147 27.1961 16.7673 27.1707C16.5935 27.158 16.457 27.1492 16.3626 27.1435C16.3154 27.1407 16.2788 27.1386 16.2532 27.1372L16.2233 27.1356L16.2148 27.1352L16.2121 27.1351L16.2109 27.135C16.2107 27.135 16.2106 27.135 16.1372 28.6332L16.2109 27.135L13.875 27.0206L14.7448 29.1911L16.1372 28.6332C14.7448 29.1911 14.7448 29.1909 14.7448 29.1911L14.7479 29.1987L14.7549 29.216L14.7806 29.2791C14.8029 29.3334 14.8354 29.4122 14.8777 29.5131C14.9623 29.7147 15.0862 30.005 15.2458 30.3657C15.5648 31.0865 16.0277 32.0918 16.606 33.2352C17.2621 34.5323 18.0793 36.0326 19.0161 37.5068C18.2038 37.3796 17.4502 37.2808 16.7908 37.2047C15.9809 37.1112 15.3073 37.0512 14.8339 37.0144C14.5971 36.9961 14.4101 36.9835 14.2807 36.9754C14.2161 36.9714 14.1658 36.9685 14.1309 36.9665L14.0902 36.9643L14.0788 36.9637L14.0742 36.9635C14.074 36.9635 14.0734 36.9635 14 38.4617L14.0742 36.9635L11.7378 36.8491L12.6076 39.0196L14 38.4617C12.6076 39.0196 12.6075 39.0192 12.6076 39.0196L12.6101 39.0258L12.6157 39.0396L12.6361 39.0897C12.6537 39.1328 12.6794 39.1953 12.7129 39.2756C12.7798 39.436 12.8778 39.6676 13.0045 39.958C13.2577 40.5385 13.6263 41.3555 14.0906 42.3093C15.0151 44.2082 16.3373 46.6864 17.903 48.9232C19.4338 51.1103 21.3415 53.2806 23.4966 54.3041C24.6139 54.8348 25.863 55.0878 27.1646 54.8037C27.4586 54.7395 27.7459 54.65 28.0265 54.536V61.5112C28.0265 62.6023 28.9116 63.5 30.0136 63.5H32.0743C33.1748 63.5 34.0614 62.6033 34.0614 61.5112V54.6296C34.3498 54.741 34.6452 54.8267 34.9472 54.8856C36.2435 55.1385 37.4818 54.864 38.5867 54.3226C40.7223 53.2762 42.6149 51.1087 44.1362 48.9256C45.691 46.6946 47.0034 44.2307 47.921 42.3442C48.3818 41.3967 48.7474 40.5856 48.9987 40.0096C49.1243 39.7214 49.2216 39.4915 49.288 39.3323C49.3212 39.2527 49.3467 39.1907 49.3642 39.1479L49.3844 39.0982L49.3899 39.0845L49.392 39.0792C49.3922 39.0788 49.3924 39.0784 48 38.5204L49.392 39.0792L50.2622 36.9078L47.9266 37.0222L48 38.5204C47.9266 37.0222 47.9268 37.0222 47.9266 37.0222L47.9112 37.023L47.8744 37.025C47.8429 37.0267 47.7974 37.0293 47.739 37.0329C47.6221 37.0401 47.4529 37.0513 47.2383 37.0676C46.8093 37.1002 46.1976 37.1532 45.4575 37.2353C44.8432 37.3035 44.1375 37.392 43.3721 37.5062C44.1443 36.1959 44.8151 34.9112 45.3547 33.812C45.8341 32.8353 46.2153 31.994 46.4774 31.395C46.6085 31.0954 46.7101 30.8559 46.7794 30.6898C46.8141 30.6068 46.8408 30.542 46.859 30.4973L46.8802 30.4454L46.8859 30.4311L46.8876 30.4269L46.8882 30.4256C46.8882 30.4254 46.8885 30.4247 45.4961 29.8668L46.8882 30.4256L47.7583 28.2542L45.4227 28.3686L45.4961 29.8668C45.4227 28.3686 45.4229 28.3686 45.4227 28.3686L45.4193 28.3688L45.4125 28.3691L45.3889 28.3703L45.3033 28.3752C45.2295 28.3795 45.1228 28.3862 44.9864 28.3957C44.7138 28.4148 44.3222 28.4453 43.8382 28.4914C43.7509 28.4998 43.6606 28.5086 43.5674 28.518C44.5221 27.0432 45.3534 25.5273 46.016 24.2217C46.5824 23.1059 47.036 22.1226 47.3486 21.4169C47.5051 21.0637 47.6266 20.7792 47.7096 20.5815C47.7512 20.4825 47.7831 20.4053 47.805 20.3518L47.8302 20.2899L47.8371 20.2728L47.8391 20.2679L47.8398 20.2663C47.8399 20.2661 47.8401 20.2653 46.4478 19.7074L47.8401 20.2653L48.71 18.0948L46.3744 18.2092L46.4478 19.7074C46.3744 18.2092 46.3746 18.2092 46.3744 18.2092L46.3673 18.2095L46.3519 18.2103L46.2969 18.2134C46.2495 18.2161 46.1813 18.2201 46.0937 18.2259C45.9186 18.2374 45.6661 18.2555 45.3496 18.2823C44.7172 18.336 43.8263 18.4249 42.7843 18.5663C41.4257 18.7507 39.7848 19.0278 38.1131 19.441ZM44.043 21.4305C43.7732 21.4624 43.4872 21.4984 43.1879 21.5391C41.2072 21.8079 38.7034 22.2709 36.4812 23.0425L32.7205 24.3482L34.6844 20.8854C35.1522 20.0608 35.2668 18.8059 34.9666 17.1426C34.6729 15.5149 34.0227 13.7218 33.2533 12.0173C32.5594 10.4798 31.7901 9.06139 31.1545 7.96769C30.6372 8.95826 30.0212 10.2085 29.4367 11.571C28.7427 13.1888 28.1084 14.9294 27.7295 16.5609C27.3432 18.2243 27.2614 19.6138 27.5159 20.6086L28.1605 23.1287L25.6564 22.4242C23.5817 21.8406 21.4235 21.4899 19.7687 21.2856C19.6805 21.2747 19.5938 21.2642 19.5088 21.2542C19.6603 21.5749 19.827 21.9199 20.0076 22.283C20.9682 24.2144 22.2935 26.5995 23.7947 28.5508L26.2224 31.7065L22.316 30.9372C20.9197 30.6622 19.6025 30.4763 18.5376 30.3529C18.7557 30.8168 19.0055 31.3323 19.2831 31.8812C20.3937 34.0769 21.9121 36.7284 23.6043 38.7522L26.5344 42.2566L22.0973 41.1714C20.0338 40.6668 17.9864 40.3626 16.4467 40.1849C16.4303 40.183 16.4139 40.1811 16.3976 40.1792C16.5182 40.4364 16.6485 40.7097 16.7879 40.996C17.6782 42.8247 18.9219 45.1472 20.3608 47.2029C21.8344 49.3084 23.3698 50.9227 24.7837 51.5943C25.451 51.9112 26.0178 51.9834 26.5248 51.8727C27.0352 51.7613 27.6683 51.4244 28.3909 50.5872L31.0265 47.5337V60.5H31.0614V47.7892L33.6812 50.7282C34.3942 51.5281 35.017 51.8427 35.5216 51.9411C36.0267 52.0396 36.596 51.9572 37.2666 51.6286C38.6819 50.9352 40.2115 49.3104 41.6749 47.2104C43.1048 45.1585 44.3396 42.8485 45.2231 41.032C45.3584 40.754 45.4849 40.4884 45.6023 40.238C44.2182 40.3965 42.4095 40.6584 40.5439 41.0795L36.6653 41.9549L38.9993 38.7358C40.4656 36.7134 41.743 34.3614 42.6616 32.49C42.8176 32.1723 42.9625 31.8698 43.0957 31.5865C42.3449 31.6735 41.4675 31.7918 40.5245 31.9507L36.463 32.6351L39.1332 29.4991C40.7747 27.5713 42.2548 25.0038 43.3408 22.864C43.6009 22.3516 43.836 21.8684 44.043 21.4305Z" fill="#956417"/>
<path d="M32.1346 62H30.0671C29.7983 62 29.5783 61.7796 29.5783 61.5112V19.459C29.5783 19.1906 29.7983 18.9702 30.0671 18.9702H32.1346C32.403 18.9702 32.6234 19.1906 32.6234 19.459V61.5112C32.6234 61.7796 32.403 62 32.1346 62Z" fill="#FBAC31"/>
<path d="M31.2822 23.9856C43.5731 23.3129 31.1395 5 31.1395 5C31.1395 5 19.2772 24.6432 31.2822 23.9856Z" fill="#FEBF4D"/>
<path d="M31.2822 23.9856C34.1898 23.8268 35.7017 22.6738 36.3342 21.0164C34.2889 23.4793 30.0808 23.4433 28.6187 19.5343C26.8546 14.8185 31.1395 5 31.1395 5C31.1395 5 19.2772 24.6432 31.2822 23.9856Z" fill="#FBAC31"/>
<path d="M31.7373 7.98395C31.7373 7.98395 37.2164 15.8103 35.0081 20.9059C35.0081 20.9059 33.7883 13.446 31.7373 7.98395Z" fill="#FFD566"/>
<path d="M32.3688 30.8349C39.2223 20.6105 17.1143 19.531 17.1143 19.531C17.1143 19.531 25.6746 40.8222 32.3688 30.8349Z" fill="#FEBF4D"/>
<path d="M32.3688 30.8349C33.9902 28.416 33.9789 26.5149 33.0345 25.013C33.7721 28.1283 31.213 31.4687 27.2107 30.2863C22.3815 28.8593 17.1143 19.531 17.1143 19.531C17.1143 19.531 25.6746 40.8222 32.3688 30.8349Z" fill="#FBAC31"/>
<path d="M19.8579 20.8485C19.8579 20.8485 29.4057 21.1775 32.1493 26.0062C32.1493 26.0062 25.4546 22.4941 19.8579 20.8485Z" fill="#FFD566"/>
<path d="M31.3016 31.0112C24.4476 20.7869 46.5561 19.7074 46.5561 19.7074C46.5561 19.7074 37.9959 40.998 31.3016 31.0112Z" fill="#FEBF4D"/>
<path d="M31.3018 31.0112C29.6804 28.5924 29.6917 26.6908 30.6361 25.1893C29.898 28.3046 32.4576 31.6451 36.4594 30.4627C41.2886 29.0357 46.5563 19.7074 46.5563 19.7074C46.5563 19.7074 37.996 40.998 31.3018 31.0112Z" fill="#FBAC31"/>
<path d="M43.8125 21.0244C43.8125 21.0244 34.2647 21.3535 31.5211 26.1826C31.5211 26.1826 38.2154 22.6705 43.8125 21.0244Z" fill="#FFD566"/>
<path d="M32.0483 40.4178C39.1934 29.7582 16.1443 28.6332 16.1443 28.6332C16.1443 28.6332 25.0687 50.8294 32.0483 40.4178Z" fill="#FEBF4D"/>
<path d="M32.0483 40.4173C33.7385 37.8961 33.7266 35.9134 32.7424 34.3474C33.5114 37.5955 30.8437 41.0782 26.6707 39.8455C21.6363 38.3578 16.1443 28.6332 16.1443 28.6332C16.1443 28.6332 25.0687 50.8294 32.0483 40.4173Z" fill="#FBAC31"/>
<path d="M19.0046 30.0056C19.0046 30.0056 28.9587 30.3494 31.8189 35.3833C31.8189 35.3833 24.8402 31.7219 19.0046 30.0056Z" fill="#FFD566"/>
<path d="M29.6973 41.6518C22.5522 30.9923 45.6013 29.8668 45.6013 29.8668C45.6013 29.8668 36.6769 52.0635 29.6973 41.6518Z" fill="#FEBF4D"/>
<path d="M29.6974 41.6519C28.0073 39.1306 28.0191 37.148 29.0033 35.582C28.2344 38.83 30.9021 42.3123 35.0751 41.0796C40.1095 39.5924 45.6014 29.8673 45.6014 29.8673C45.6014 29.8673 36.6771 52.0635 29.6974 41.6519Z" fill="#FBAC31"/>
<path d="M42.7406 31.2402C42.7406 31.2402 32.787 31.5834 29.9263 36.6179C29.9263 36.6179 36.9054 32.956 42.7406 31.2402Z" fill="#FFD566"/>
<path d="M30.3364 50.5667C37.6758 39.6175 14 38.4617 14 38.4617C14 38.4617 23.1671 61.2619 30.3364 50.5667Z" fill="#FEBF4D"/>
<path d="M30.3364 50.5667C32.0725 47.9768 32.0602 45.94 31.0494 44.3319C31.8393 47.6686 29.0985 51.2456 24.8122 49.9793C19.6408 48.4513 14 38.4617 14 38.4617C14 38.4617 23.1671 61.2619 30.3364 50.5667Z" fill="#FBAC31"/>
<path d="M16.938 39.8721C16.938 39.8721 27.1628 40.2243 30.1012 45.3958C30.1012 45.3958 22.932 41.6348 16.938 39.8721Z" fill="#FFD566"/>
<path d="M31.7771 50.6255C24.4367 39.6763 48.1135 38.5204 48.1135 38.5204C48.1135 38.5204 38.9459 61.3206 31.7771 50.6255Z" fill="#FEBF4D"/>
<path d="M31.7768 50.6255C30.0407 48.0351 30.053 45.9988 31.0638 44.3907C30.2739 47.7269 33.0142 51.3044 37.3005 50.0381C42.4719 48.5101 48.1137 38.5204 48.1137 38.5204C48.1137 38.5204 38.9461 61.3206 31.7768 50.6255Z" fill="#FBAC31"/>
<path d="M45.1751 39.9308C45.1751 39.9308 34.9507 40.2831 32.0118 45.4545C32.0118 45.4545 39.1811 41.6931 45.1751 39.9308Z" fill="#FFD566"/>
</svg>
