<svg width="264" height="273" viewBox="0 0 264 273" fill="none" xmlns="http://www.w3.org/2000/svg">
<path fill-rule="evenodd" clip-rule="evenodd" d="M132.7 7.40339C157.762 7.6646 185.211 -8.20734 206.031 5.7515C226.877 19.7273 225.517 50.1745 232.474 74.2956C239.143 97.4231 247.563 119.475 245.75 143.478C243.48 173.54 241.918 206.559 220.857 228.121C198.534 250.975 163.818 266.417 132.7 259.215C102.375 252.196 92.7587 214.337 69.9141 193.186C51.0047 175.678 22.3969 169.372 10.8023 146.354C-1.66754 121.598 -3.2328 91.6887 5.54443 65.3946C14.2828 39.2169 33.1495 15.6591 58.2507 4.21129C81.4193 -6.35509 107.239 7.13803 132.7 7.40339Z" fill="#FCFDFE"/>
<path fill-rule="evenodd" clip-rule="evenodd" d="M149.7 18.4034C174.762 18.6646 202.211 2.79266 223.031 16.7515C243.877 30.7273 242.517 61.1745 249.474 85.2956C256.143 108.423 264.563 130.475 262.75 154.478C260.48 184.54 258.918 217.559 237.857 239.121C215.534 261.975 180.818 277.417 149.7 270.215C119.375 263.196 109.759 225.337 86.9141 204.186C68.0047 186.678 39.3969 180.372 27.8023 157.354C15.3325 132.598 13.7672 102.689 22.5444 76.3946C31.2828 50.2169 50.1495 26.6591 75.2507 15.2113C98.4193 4.64491 124.239 18.138 149.7 18.4034Z" stroke="#81ABCC" stroke-opacity="0.4" stroke-width="2"/>
</svg>
