<svg width="612" height="667" viewBox="0 0 612 667" fill="none" xmlns="http://www.w3.org/2000/svg">
<path fill-rule="evenodd" clip-rule="evenodd" d="M291.289 1.91162C357.012 -2.37904 431.236 -3.16181 480.02 41.0885C527.8 84.4281 512.78 161.073 533.94 222.012C555.762 284.859 632.361 342.062 605.687 403.008C578.317 465.546 474.081 436.487 421.185 479.64C362.444 527.561 365.968 672.533 291.289 659.498C209.822 645.278 248.967 498.016 190.631 439.398C148.077 396.638 37.6086 446.645 21.5828 388.487C5.20377 329.047 120.934 310.317 138.802 251.308C157.386 189.933 86.1996 119.325 119.651 64.6147C152.222 11.3442 228.983 5.97922 291.289 1.91162Z" fill="#EFF5FA" fill-opacity="0.2"/>
<path fill-rule="evenodd" clip-rule="evenodd" d="M272.289 6.91162C338.012 2.62096 412.236 1.83819 461.02 46.0885C508.8 89.4281 493.78 166.073 514.94 227.012C536.762 289.859 613.361 340.054 586.687 401C559.317 463.538 455.081 434.479 402.185 477.632C343.444 525.553 346.968 677.533 272.289 664.498C190.822 650.278 229.967 503.016 171.631 444.398C129.077 401.638 18.6086 451.645 2.58278 393.487C-13.7962 334.047 101.934 315.317 119.802 256.308C138.386 194.933 67.1996 124.325 100.651 69.6147C133.222 16.3442 209.983 10.9792 272.289 6.91162Z" stroke="#81ABCC" stroke-opacity="0.4" stroke-width="2"/>
</svg>
