<svg width="426" height="454" viewBox="0 0 426 454" fill="none" xmlns="http://www.w3.org/2000/svg">
<path fill-rule="evenodd" clip-rule="evenodd" d="M217.047 16.7754C265.902 6.06613 322.929 -14.1067 363.416 15.2459C403.902 44.598 402.719 105.014 407.407 154.784C411.217 195.223 395.722 232.196 387.604 271.995C378.095 318.607 389.317 373.73 355.845 407.549C321.34 442.413 265.425 452.499 217.047 444.324C171.928 436.7 144.672 393.933 108.617 365.771C74.261 338.936 28.2573 323.556 11.1237 283.48C-6.60195 242.02 -2.0587 192.492 17.0791 151.664C35.0591 113.306 75.7832 94.2917 110.912 70.5957C144.62 47.8579 177.325 25.4826 217.047 16.7754Z" fill="#EFF5FA" fill-opacity="0.2"/>
<path fill-rule="evenodd" clip-rule="evenodd" d="M234.047 22.7754C282.902 12.0661 339.929 -8.10672 380.416 21.2459C420.902 50.598 419.719 111.014 424.407 160.784C428.217 201.223 412.722 238.196 404.604 277.995C395.095 324.607 406.317 379.73 372.845 413.549C338.34 448.413 282.425 458.499 234.047 450.324C188.928 442.7 161.672 399.933 125.617 371.771C91.261 344.936 45.2573 329.556 28.1237 289.48C10.398 248.02 14.9413 198.492 34.0791 157.664C52.0591 119.306 92.7832 100.292 127.912 76.5957C161.62 53.8579 194.325 31.4826 234.047 22.7754Z" stroke="#81ABCC" stroke-opacity="0.4" stroke-width="2"/>
</svg>
