<svg width="16" height="16" viewBox="0 0 52 52" fill="none" xmlns="http://www.w3.org/2000/svg">
    <path d="M27.2 41.7C26.5 41.6 25.8 41.5 25.1 41.4C24.4 41.3 23.7 41.1 23 40.8C22.6 40.7 22.1 40.8 21.8 41.1L21.3 41.6C18.4 44.5 13.7 44.8 10.7 42.2C7.29997 39.3 7.19997 34.1 10.3 31L17.9 23.4C18.9 22.4 20.1 21.8 21.3 21.4C22.9 21 24.6 21.1 26.1 21.7C27 22.1 27.9 22.6 28.7 23.4C29.1 23.8 29.4 24.2 29.7 24.7C30.1 25.4 31 25.5 31.5 24.9C32.4 24 33.6 22.8 34.3 22.1C34.7 21.7 34.7 21.1 34.4 20.6C34 20 33.5 19.5 33 19C32.3 18.3 31.5 17.6 30.6 17.1C29.2 16.2 27.6 15.6 25.9 15.3C22.8 14.7 19.4 15.2 16.6 16.7C15.5 17.3 14.4 18.1 13.5 19L6.19997 26.3C0.899973 31.6 0.499973 40.2 5.59997 45.6C10.9 51.4 19.9 51.5 25.4 46L27.9 43.5C28.6 43 28.1 41.8 27.2 41.7Z"
          fill="#1E88E5"/>
    <path d="M45.6 5.79992C40.1 0.699924 31.5 1.09992 26.3 6.39992L24 8.59992C23.3 9.29992 23.8 10.4999 24.7 10.5999C26.1 10.6999 27.5 10.9999 28.9 11.3999C29.3 11.4999 29.8 11.3999 30.1 11.0999L30.6 10.5999C33.5 7.69992 38.2 7.39992 41.2 9.99992C44.6 12.8999 44.7 18.0999 41.6 21.1999L34 28.7999C33 29.7999 31.8 30.3999 30.6 30.7999C29 31.1999 27.3 31.0999 25.8 30.4999C24.9 30.0999 24 29.5999 23.2 28.7999C22.8 28.3999 22.5 27.9999 22.2 27.4999C21.8 26.7999 20.9 26.6999 20.4 27.2999L17.6 30.0999C17.2 30.4999 17.2 31.0999 17.5 31.5999C17.9 32.1999 18.4 32.6999 18.9 33.1999C19.6 33.8999 20.5 34.5999 21.3 35.0999C22.7 35.9999 24.3 36.5999 25.9 36.8999C29 37.4999 32.4 36.9999 35.2 35.4999C36.3 34.8999 37.4 34.0999 38.3 33.1999L45.9 25.5999C51.5 20.0999 51.3 11.0999 45.6 5.79992Z"
          fill="#1E88E5"/>
</svg>
