<svg width="20" height="21" viewBox="0 0 20 21" fill="none" xmlns="http://www.w3.org/2000/svg">
<path d="M18.6382 13.7244C17.6223 12.908 16.6904 12.511 15.7892 12.511C14.4855 12.511 13.5468 13.3404 12.6969 14.1899C12.5992 14.2877 12.4809 14.3333 12.3246 14.3333C11.6085 14.3334 10.3486 13.4366 8.58006 11.6678C6.49945 9.58706 5.7128 8.26366 6.24176 7.73449C7.6757 6.30104 8.12335 4.86404 5.92789 2.13363C5.14194 1.15542 4.37297 0.679993 3.57707 0.679993C2.5037 0.679993 1.68774 1.53799 0.96785 2.29505C0.84339 2.42592 0.725821 2.54954 0.610549 2.66482C-0.203108 3.4784 -0.202691 5.25301 0.611732 7.41213C1.5053 9.78113 3.2696 12.3582 5.57971 14.6686C7.36622 16.455 9.31004 17.8987 11.2012 18.868C12.8522 19.7143 14.4537 20.1677 15.7106 20.1677C15.7108 20.1677 15.7109 20.1677 15.7111 20.1677C16.4977 20.1677 17.1366 19.9961 17.5586 19.6472C18.4158 18.9385 20.0112 17.6258 20.0006 16.0666C19.9947 15.2303 19.5365 14.4466 18.6382 13.7244Z" fill="white"/>
</svg>
