<svg width="274" height="277" viewBox="0 0 274 277" fill="none" xmlns="http://www.w3.org/2000/svg">
<path fill-rule="evenodd" clip-rule="evenodd" d="M165.5 14.679C188.018 19.5845 204.529 36.697 221.417 52.3682C237.738 67.5139 255.675 82.2623 261.483 103.748C267.412 125.682 259.916 148.026 253.135 169.71C245.569 193.906 239.342 219.638 220.084 236.138C198.871 254.314 171.084 262.509 143.174 263.924C111.865 265.512 78.3552 263.666 53.4889 244.588C27.9434 224.988 9.08949 193.499 9.4443 161.321C9.77869 130.997 39.386 111.139 55.2455 85.2844C68.0701 64.3776 72.7253 37.708 93.3872 24.4764C114.323 11.0697 141.202 9.38567 165.5 14.679Z" stroke="#81ABCC"/>
</svg>
